<svg width="900" height="570" xmlns="http://www.w3.org/2000/svg" xmlns:xlink="http://www.w3.org/1999/xlink" overflow="hidden"><defs><clipPath id="clip0"><rect x="0" y="0" width="713" height="553"/></clipPath></defs><g clip-path="url(#clip0)"><path d="M0.216836 64.9854C5.1737 379.746 1.45605 407.54 2.69527 547.04 2.69527 547.04 86.474 502.334 148.517 464.596 206.984 429.033 308.875 602.186 347.336 538.531 387.572 471.938 564.489 521.964 539.301 485.524 518.215 455.018 434.061 360.847 535.458 401.459 556.496 409.885 526.918 354.873 557.262 355.811 614.852 357.592 561.572 285.839 610.609 249.366 670.45 204.859 511.455 215.21 567.633 148.155 482.492 132.583 576.912-15.2402 546.701 1.54368 526.167 12.9515 427.264 117.528 396.562 75.3249 365.211 32.2294 327.897 88.8977 296.45 77.7019 266.281 66.9609 270.705 39.8857 223.456 15.239 174.724-10.1812 0.216836 64.9854 0.216836 64.9854" stroke="#000000" stroke-width="0.433725" fill="#4D4D4D" transform="scale(1.1416 1)"/></g></svg>