<svg width="589" height="635" xmlns="http://www.w3.org/2000/svg" xmlns:xlink="http://www.w3.org/1999/xlink" overflow="hidden"><defs><clipPath id="clip0"><rect x="0" y="0" width="589" height="635"/></clipPath></defs><g clip-path="url(#clip0)"><path d="M0.98039 60.9354C0.98039 60.9354 124.382 5.27526 180.146 29.1376 258.451 62.6456 288.825 67.3179 345.407 67.9384 424.879 68.8099 566.69-43.1127 578.665 18.5439 584.773 49.9921 559.104 92.6002 581.874 136.968 602.95 178.035 570.548 237.288 504.479 251.802 446.455 264.549 638.207 318.211 553.72 370.111 461.473 395.197 607.716 562.449 546.289 617.544 503.382 656.029 431.412 600.049 373.908 603.978 329.483 607.013 321.348 644.003 243.398 632.474 163.033 619.778 84.0392 522.583 0 593.139" fill="#272727" fill-rule="evenodd" transform="scale(1.00079 1)"/></g></svg>