<?xml version="1.0" encoding="utf-8"?>
<svg id="master-artboard" viewBox="0 0 2096.2 1555" version="1.1" xmlns="http://www.w3.org/2000/svg" x="0px" y="0px" enable-background="new 0 0 2096.2 1555" width="2096.199951171875px" height="1555px"><rect id="ee-background" x="0" y="0" width="2096.199951171875" height="1555" style="fill: white; fill-opacity: 0; pointer-events: none;"/><defs><radialGradient id="gradient-0" gradientUnits="objectBoundingBox" cx="0.5" cy="0.5" r="0.5">
                <stop offset="0" style="stop-color: #d6e9f6"/>
                <stop offset="1" style="stop-color: #82bde4"/>
              </radialGradient></defs>
<path fill="#D6E9F6" d="M2028.2,1409.4H73.8c-6.6,0-12-5.4-12-12V400.3c0-6.6,5.4-12,12-12h1954.3c6.6,0,12,5.4,12,12v997.1&#10;&#9;&#9;C2040.2,1403.9,2034.8,1409.4,2028.2,1409.4z" transform="matrix(1, 0, 0, -1, 0.00020934005442541093, 1797.6999358410494)" style="stroke: rgb(0, 0, 0); stroke-width: 0; stroke-opacity: 1; paint-order: fill; fill: rgb(248, 255, 182);"/><path fill="#FFC5B6" d="M475,1538l-113.9-535.8l31.9-17.3l1.1-10.9L350,941.8V855l8.7-59l20.9-28H426c0,0,27.6-7.6,27.6-21.2&#10;&#9;&#9;s-20.5-35-20.5-35l-71.9-6.8c0,0-85.9,13.5-106.7,51.5s-40.5,55.2-50.3,111.7c-9.8,56.4-19.6,82.3-14.7,104.3&#10;&#9;&#9;c4.9,22.1,114.9,565.4,114.9,565.4H475z" transform="matrix(0.9999999999999999, 0, 0, 0.9999999999999999, -2.842170943040401e-14, 0)"/><path fill="#FFC5B6" d="M1615.7,1188.2c9.4,5.9,14.8,17.2,12.5,28.8l-67,320.9h171.8l114-570.9c2.6-13.3-6.4-26.2-19.9-28.1&#10;&#9;&#9;&#9;c-12.7-1.8-24.4,7.6-26.9,20.2l8.4-42.2c2.5-12.9-5.8-25.3-18.7-27.9c-12.9-2.5-25.3,5.8-27.9,18.7l4.2-21.5&#10;&#9;&#9;&#9;c2.5-12.9-5.8-25.3-18.7-27.9c-12.9-2.5-25.3,5.8-27.9,18.7l-4.4,22.3c2.5-12.4-4.8-25.1-17-28.3c-13.4-3.6-26.8,4.9-29.4,18.3&#10;&#9;&#9;&#9;l-16,81c2.5-12.6-4.7-25.8-17.2-28.9c-13.3-3.4-26.5,5.1-29.1,18.4l-34.3,173.4c-4.7,23.7,10.7,46.7,34.4,51.4l0,0&#10;&#9;&#9;&#9;C1609.8,1185.3,1612.9,1186.5,1615.7,1188.2" transform="matrix(0.9999999999999999, 0, 0, 0.9999999999999999, -8.526512829121202e-14, 0)"/><path fill="#151D38" d="M1028.3,1537.9c-1.7-1.9-2,2.5-2,0c-0.2-16.2-2-17.1-6.7-32.7c-3.7-12.2-9.1-23.6-16.8-33.8&#10;&#9;&#9;c-11.2-14.8-25.8-25.1-43.1-31.7c-12.3-4.8-25.1-7.5-38.2-8.8c-17.4-1.7-34.8-1.2-52.2,0.9c-20.2,2.4-40.1,6.5-59.4,12.8&#10;&#9;&#9;c-23,7.4-46.4,13.1-70.3,16.9c-17.6,2.8-35.2,4.6-53,4c-13.6-0.5-27.1-2.1-40.1-6.6c-6.8-2.4-13.3-5.5-19.1-9.8&#10;&#9;&#9;c-12.5-9.2-19.6-21.7-22.3-36.8c-1.5-8.4-1.7-16.9-0.3-25.3c2.7-15.7,11-27.4,25-35c8.5-4.7,17.8-7.2,27.4-8.2&#10;&#9;&#9;c9.9-1.1,19.8-1,29.7-0.4c8.5,0.5,16.9-0.5,25.1-3.1c15.8-5.1,24.6-16,26.2-32.6c0.5-5.3,0.2-10.6-1-15.7&#10;&#9;&#9;c-2-8.6-6.7-15.4-14.1-20.4c-6.6-4.5-14-6.8-21.8-8.3c-5.7-1.1-11.4-1.4-17.2-1.3c-14.7,0.1-29.4,0.2-44.2,0.2&#10;&#9;&#9;c-7.2,0-14.4,0.1-21.6,0c-8.5-0.1-16.8-1.7-24.8-4.8c-3.9-1.5-7.6-3.4-11-5.9c-9.6-7-14.9-16.5-16-28.3c-0.6-5.7-0.5-11.5,0.8-17.2&#10;&#9;&#9;c2.4-10.5,8.2-18.6,17.2-24.5c5.8-3.8,12.3-6.1,19.1-7.6c6-1.3,12-1.9,18.1-1.9c29.8,0,59.5,0,89.3,0c7.6,0,15-1.2,22.1-3.8&#10;&#9;&#9;c2.4-0.9,4.7-1.9,7-3.2c9.8-5.5,15.2-13.9,16.4-25c0.5-4.8,0.3-9.6-1-14.3c-1.7-6.5-5.2-12-10.5-16.2c-4.6-3.6-9.8-6.1-15.3-7.7&#10;&#9;&#9;c-6.5-1.9-13.1-2.8-19.9-2.8c-29.8,0-59.5,0-89.3,0c-14,0-27.3-2.9-39.8-9.2c-13.7-6.9-23.5-17.5-29-31.9c-0.2-0.6-0.5-1.2-0.6-1.8&#10;&#9;&#9;c-0.5-1.6-1.5-2.2-3.2-2.2c-8.2,0.1-16.3,0-24.5,0c-10.4,0-20.4-2.2-29.5-7.1c-21.3-11.4-33.4-29.2-36.4-53.1&#10;&#9;&#9;c-0.2-1.9-0.2-3.8-0.2-5.8c0-3.5,0-7,0-10.6c0-3.1-0.1-3.2-3.3-3.2c-16,0-32,0-48-0.1c-2.2,0-3.4,0.8-4.6,2.6&#10;&#9;&#9;c-6,10-14.3,17.6-24.7,22.8c-3.1,1.6-6.5,2.8-9.7,4.1c-2,0.8-2.2,1.1-1.8,3.2c0.7,3.8,1.5,7.5,2.3,11.3&#10;&#9;&#9;c6.6,31.9,13.2,63.9,19.8,95.8c6,29,11.9,57.9,17.9,86.9c5.9,28.5,11.7,57,17.6,85.5c6.3,30.5,12.6,61.1,18.9,91.6&#10;&#9;&#9;c5.9,28.8,11.8,57.6,17.8,86.4c5.9,28.7,11.8,44.9,17.7,73.6c0.3,1.6,0.6-1.6,0.8,0c0.1,1.7-0.9-0.2-2.4,0c-1.5,0.2-2.8,1.5-3.3,0&#10;&#9;&#9;c-0.2-0.8-0.3,0.8-0.5,0c-4.1-20-8.3-24.5-12.4-44.5c-5.9-28.7-11.8-57.3-17.7-86c-5.9-28.7-11.8-57.3-17.7-86&#10;&#9;&#9;c-6-29-11.9-57.9-17.9-86.9c-5.6-27.2-11.2-54.5-16.8-81.7c-5.9-28.5-11.7-57-17.6-85.5c-3.9-19.1-7.9-38.2-11.9-57.3&#10;&#9;&#9;c-0.2-0.8-0.3-1.6-0.5-2.3c-0.3-0.9-0.9-1.3-1.8-1.2c-1.1,0.2-2.2,0.4-3.3,0.6c-8.5,1.8-17,2.9-25.7,3.4&#10;&#9;&#9;c-5.4,0.3-10.9,0.5-16.3,0.7c-1,0-1.9,0.1-2.9-0.1c-1.5-0.3-2.6-1.7-2.4-3.1c0.1-1.2,1.1-2.4,2.5-2.6c1.6-0.2,3.2-0.3,4.8-0.3&#10;&#9;&#9;c10.1-0.2,20.1-0.8,30.1-2.3c9.5-1.5,18.8-3.6,27.6-7.7c8.3-3.8,15.4-9.1,20.9-16.4c0.8-1,1.5-2.1,2.2-3.1c0.6-1,0.4-1.5-0.5-1.8&#10;&#9;&#9;c-0.9-0.2-1.9-0.5-2.8-0.6c-21.9-3.6-42.2-20.7-47.9-45.5c-0.9-4.1-1.6-8.2-1.5-12.4c0-1.6-0.2-3.2,0-4.8c0.5-3.3-1.7-4.9-3.9-6.6&#10;&#9;&#9;c-0.5-0.4-0.9,0.1-1.1,0.5c-0.9,1.7-1.7,3.4-2.6,5.1c-8.3,16-20.8,27.3-37.3,34.4c-0.9,0.4-1.8,0.7-2.7,1c-2,0.6-3.5,0.1-4.2-1.3&#10;&#9;&#9;c-0.8-1.7,0-3.3,1.9-4.2c1-0.5,2.1-0.8,3.1-1.3c17.9-7.8,30.3-20.9,37.3-39.2c0.5-1.4,0.7-2.6,0.2-4.1c-4-10.9-2.6-21.1,4.9-30.2&#10;&#9;&#9;c1.1-1.4,1.1-2.4,0.3-3.8c-4.2-7.5-4.9-15.4-2.6-23.7c1-3.6,2.7-6.9,5-9.7c1.2-1.5,1.7-3,1.6-4.8c-0.1-3.4,0-6.7,0-10.1&#10;&#9;&#9;c-0.2-15.7,5-29.5,15.3-41.3c0.6-0.7,1.8-1.3,1.5-2.3c-0.5-1.3-1.9-0.8-2.9-0.8c-4.8-0.2-9.6-0.4-14.4-0.6&#10;&#9;&#9;c-2.4-0.1-3.7-1.1-3.8-2.8c-0.1-1.9,1.3-3.1,4-3c5.3,0.1,10.6,0.2,15.8,0.3c19.2,0.6,38.4,1.2,57.6,1.8c2.1,0.1,4.1,0.2,6.2,0.4&#10;&#9;&#9;c7,0.6,13.4-1.3,18.7-5.9c7.4-6.5,10.2-14.7,7.5-24.2c-2.7-9.6-9.3-15.6-19.1-17.4c-8-1.5-16.1-2.6-24.2-3.8&#10;&#9;&#9;c-7.1-1.1-14.2-2.1-21.3-3.2c-9.8-1.5-19.7-1.8-29.7-1c-17.2,1.4-33.7,5.8-49.3,13.1c-23.2,11-42,27.2-56.7,48.3&#10;&#9;&#9;c-12.8,18.4-22.4,38.4-30,59.3c-7.6,20.9-13.1,42.4-17.3,64.3c-2.3,11.9-4.1,24-5.5,36c-0.8,6.2-1.2,12.4-0.8,18.7&#10;&#9;&#9;c0.3,4.8,0.4,9.6,0.2,14.4c-0.3,8.2,0.9,16.2,2.5,24.3c7.4,36.5,14.6,73,22,109.6c6.6,32.8,13.2,65.5,19.7,98.3&#10;&#9;&#9;c6.6,32.8,13.1,65.5,19.6,98.3c5.9,29.5,11.8,58.9,17.7,88.4c5.2,26.2,10.5,52.4,15.7,78.5c5.3,26.6,10.7,50.9,16,77.6&#10;&#9;&#9;c0.8,4.2,1.7-4.2,2.5,0c0.1,0.8,0.3-0.8,0.3,0c0,1.3-1-0.2-2.3,0c-1.4,0.2-2.7,1.2-3.2,0c-0.4-0.9-0.6,0.9-0.8,0&#10;&#9;&#9;c-4.5-22.4-9-29-13.5-51.4c-5-24.8-9.9-49.5-14.9-74.3s-9.9-49.5-14.9-74.3c-5-24.8-9.9-49.5-14.9-74.3&#10;&#9;&#9;c-5.3-26.3-10.5-52.7-15.8-79c-5.3-26.5-10.6-53-15.9-79.5c-5.3-26.3-10.6-52.7-15.8-79c-3-15.2-6.1-30.4-9.1-45.6&#10;&#9;&#9;c-1-5.2-2-10.4-1.8-15.7c0.1-1.4-0.1-2.8-0.6-4.2c0-8.3,0-16.6,0-25c1.6-1.2,1.6-3,1.8-4.8c2.8-24.5,7.2-48.7,13.6-72.5&#10;&#9;&#9;c6.7-24.8,15.5-48.7,27.9-71.3c5.6-10.1,11.7-19.9,18.9-28.8c22.8-28.2,51.9-45.9,87.5-53.1c11.4-2.3,22.8-3.1,34.4-2.6&#10;&#9;&#9;c6.2,0.2,12.4,1.2,18.6,2.1c11.9,1.8,23.7,3.6,35.5,5.5c2.8,0.4,5.7,0.9,8.4,1.7c15,4.5,23.8,19.7,20.5,35&#10;&#9;&#9;c-0.2,0.8-0.4,1.6-0.5,2.3c-0.1,0.7-0.9,1.5,0.1,2.1c1,0.6,2.2,0.5,3.2,0c0.3-0.2,0.6-0.7,0.6-1.2c0.1-1.3,0.1-2.6,0.1-3.8&#10;&#9;&#9;c0.1-3.2-0.2-6.4,0.3-9.6c2-14.9,4.6-29.7,11.2-43.4c17.1-36,44.8-59.3,83.5-69c12.3-3.1,24.9-3.9,37.6-2.8&#10;&#9;&#9;c29,2.5,54.1,13.7,75,33.8c19.5,18.8,31.3,41.8,35.5,68.6c0.9,5.9,1.6,11.8,1.4,17.7c-1.2,35.7-0.3,71.3-0.5,107&#10;&#9;&#9;c-0.2,35.5-0.1,71,0,106.6c0,7.5-1,6.7,7,6.8c5.1,0,10.2,0,15.4,0c1.1,0,2.2,0,3.4-0.1c1-0.1,1.9-0.4,2-1.6&#10;&#9;&#9;c0.1-0.6,0.2-1.3,0.3-1.9c2.1-7.6,7.9-12.1,15.9-12.1c9.8-0.1,19.5,0,29.3,0c7.3,0,6.4,0.9,6.4-6.3c0-71.2,0-142.4,0-213.6&#10;&#9;&#9;c0-1.4,0.1-2.9,0-4.3c-0.3-5.2,1.2-9.8,4.9-13.5c1.2-1.3,1.2-1.4,0-2.7c-3.6-3.7-5.1-8-4.9-13.1c0.1-1.3,0-2.6,0-3.8&#10;&#9;&#9;c0-168,0-336,0-504c0-1.6,0.1-3.2,0-4.8c-0.2-5.9,3.6-13.1,10.9-15.3c0.6-0.2,1.2-0.3,1.6-0.9c243.8,0,487.7,0,731.5,0&#10;&#9;&#9;c0.6,0.3,1.1,0.6,1.7,0.8c6.9,2.1,10.5,7,11.4,13.9c0.2,1.4,0.1,2.9,0.1,4.3c0,169.4,0,338.9,0,508.3c0,1.1,0,2.2,0,3.4&#10;&#9;&#9;c-0.2,3.8-1.4,7.2-3.9,10.1c-0.7,0.8-2.1,1.4-1.8,2.6c0.2,0.8,1.1,1.5,1.7,2.2c2.6,3,3.9,6.6,4.1,10.5c0,0.6,0,1.3,0,1.9&#10;&#9;&#9;c0,1.3,0,2.6,0,3.8c0,178.4,0,356.8,0,535.2c0,1.9,0.1,3.8-0.1,5.8c-0.7,9.1-7.2,15.3-16.4,15.5c-1.3,0-2.6,0-3.8,0&#10;&#9;&#9;c-239,0-478,0-717.1,0c-1.6,0-3.2,0.1-4.8,0c-8.3-0.5-14.6-6.9-15.1-15.2c-0.1-1.8,0-3.5,0-5.3c0-91.5,0-183,0-274.5&#10;&#9;&#9;c0-7.6,1.1-6.8-6.9-6.8c-8.3,0-16.6,0-25,0c-1.1,0-2.2,0-3.4,0c-7.3,0-12.6-3.2-15.5-10c-0.7-1.6-1.6-2.2-3.3-2.1&#10;&#9;&#9;c-7.7,0-15.4,0-23,0c-2.1,0-2.5,0.4-2.5,2.6c0,5.9,0.1,11.8-0.1,17.8c-0.5,20.1-8.3,36.9-23.5,50.1c-11.5,10-25.1,15.1-40.4,15.4&#10;&#9;&#9;c-1.6,0-3.2,0-4.8,0c-23.7,0-47.4,0-71,0c-4.6,0-4.9,0-3,4.4c5.5,12.6,14.9,21.4,27.2,27.1c11.2,5.2,23.1,7.6,35.4,7.6&#10;&#9;&#9;c29.9,0.1,59.8,0,89.8,0c8.2,0,16.2,1.4,24,4c3.6,1.2,7.1,2.9,10.4,5c9.7,6.2,15.5,15.1,17.1,26.5c0.7,5.2,0.7,10.5-0.3,15.8&#10;&#9;&#9;c-2.2,11.8-8.8,20.4-19.2,26.1c-7.5,4.2-15.7,6.3-24.2,7.1c-3,0.3-6.1,0.4-9.1,0.4c-29.1,0-58.2,0-87.4,0c-8,0-16,0.9-23.6,3.5&#10;&#9;&#9;c-3,1-6,2.3-8.8,3.9c-10.2,5.8-15.9,14.6-17.2,26.2c-0.5,4.9-0.4,9.9,0.6,14.8c1.9,8.7,6.5,15.6,13.8,20.6c7,4.8,14.9,7.1,23.3,8.3&#10;&#9;&#9;c4.1,0.6,8.3,0.8,12.4,0.8c15.5-0.1,31,0,46.6,0c3.8,0,7.7-0.2,11.5-0.3c10.3-0.3,20.4,0.6,30.4,3.5c3.7,1.1,7.2,2.5,10.7,4.3&#10;&#9;&#9;c13,6.8,20.5,17.6,22.3,32.1c0.9,7.5,0.6,15-1.6,22.3c-3,10.1-9,17.9-18.1,23.3c-6.6,3.9-13.7,6-21.2,7.2c-6.5,1-13,1-19.6,0.7&#10;&#9;&#9;c-8-0.3-16-0.5-24,0.3c-9.1,0.9-17.9,3.1-26.1,7.4c-13.3,7-20.8,17.9-22.8,32.9c-1.2,8.9-0.5,17.6,1.6,26.2&#10;&#9;&#9;c3.3,13.2,10.8,23.3,22.4,30.5c7.4,4.6,15.5,7.5,24,9.5c14.1,3.2,28.5,4,42.9,3.3c36-1.6,70.9-9.3,105.2-20.1&#10;&#9;&#9;c15.4-4.8,31.1-8.6,47-11.3c16.4-2.8,33-4.2,49.7-4c19,0.2,37.6,2.6,55.6,9c22.4,8,40.6,21.4,53.5,41.6c6.4,10.1,10.9,21,14,32.4&#10;&#9;&#9;c4.1,15.2,5.8,15.1,5.9,30.9c0,2.4-0.7-1.8-2.1,0C1029.6,1537.9,1028.9,1537.9,1028.3,1537.9z" transform="matrix(0.9999999999999999, 0, 0, 0.9999999999999999, -2.842170943040401e-14, 0)"/><path fill="#B4C5CC" d="M1159.1,710.1c-119.4,0-238.7,0-358.1,0c-1.4,0-2.9,0-4.3,0c-5.7,0.3-9.6,3.9-10.2,9.6&#10;&#9;&#9;c-0.1,1.4-0.1,2.9-0.1,4.3c0,168.9,0,337.9,0,506.8c0,1.1,0,2.2,0,3.4c0.4,5.8,3.9,9.5,9.6,10.1c2.1,0.2,4.2,0.1,6.2,0.1&#10;&#9;&#9;c220.8,0,441.6,0,662.3,0c17.6,0,35.2,0,52.8,0c1.4,0,2.9,0.1,4.3-0.1c5.8-0.5,9.4-4,9.9-9.8c0.2-2.2,0.1-4.5,0.1-6.7&#10;&#9;&#9;c0-131.8,0-263.7,0-395.5c0-36,0-72,0-108c0-1.8,0-3.5-0.2-5.3c-0.6-5.2-4.4-8.6-9.6-9c-1.6-0.1-3.2,0-4.8,0&#10;&#9;&#9;C1397.8,710.1,1278.5,710.1,1159.1,710.1z" transform="matrix(0.9999999999999999, 0, 0, 0.9999999999999999, -2.842170943040401e-14, 0)" style="fill: rgb(136, 143, 138);"/><path fill="#4C707F" d="M1158.8,704.2c119.4,0,238.7,0,358.1,0c1.8,0,3.5,0.1,5.3-0.1c5.3-0.5,8.9-3.9,9.5-9.1&#10;&#9;&#9;c0.2-1.9,0.2-3.8,0.2-5.7c0-76.5,0-152.9,0-229.4c0-91.5,0-183,0-274.5c0-1.9,0.1-3.8-0.1-5.8c-0.5-5.7-4.3-9.3-10-9.7&#10;&#9;&#9;c-1.4-0.1-2.9,0-4.3,0c-61.9,0-123.8,0-185.7,0c-176.6,0-353.3,0-529.9,0c-1.8,0-3.5-0.1-5.3,0.1c-5.7,0.5-9.4,4.2-9.9,9.9&#10;&#9;&#9;c-0.1,1.3,0,2.6,0,3.8c0,168.9,0,337.9,0,506.8c0,1.3-0.1,2.6,0,3.8c0.4,5.7,4.2,9.4,9.9,9.9c1.6,0.1,3.2,0,4.8,0&#10;&#9;&#9;C920.4,704.2,1039.6,704.2,1158.8,704.2z" transform="matrix(0.9999999999999999, 0, 0, 0.9999999999999999, -2.842170943040401e-14, 0)" style="fill: rgb(90, 90, 90);"/><path fill="#E8384A" d="M695.1,861.4c0-35.8,0-71.7,0-107.5c0-2.6,0-5.1,0.2-7.7c0.5-7.9,0-15.7-1.4-23.4&#10;&#9;&#9;c-4.3-24.2-14.9-45.2-32.6-62.3c-30-28.8-65.8-38.6-106.5-30.8c-39.9,10-67.7,34.1-83.2,72c-6,14.7-8.1,30.2-8.5,45.9&#10;&#9;&#9;c-0.2,8.2,0,16.3,0.1,24.5c0,0.6,0.1,1.3,0,1.9c-0.2,1.5,0.6,2.4,1.9,3c0.4,0.2,0.9,0.4,1.3,0.7c7.2,4.2,11.4,10.7,13.4,18.5&#10;&#9;&#9;c2.1,8.2,1.9,16.5-0.1,24.7c-2.4,9.5-7,17.8-14.1,24.7c-1.9,1.9-2.6,3.8-2.5,6.3c0.1,4.2,0,8.3,0,12.5c0.1,5.3-0.3,10.5,0.5,15.8&#10;&#9;&#9;c0.3,1.7,0,3.5-0.1,5.3c-0.1,2.1-0.4,4.1-0.4,6.2c0,31.8,0,63.7,0,95.5c0,6.3,1,12.4,2.9,18.4c8.3,25.6,32.4,42.5,57.9,42.4&#10;&#9;&#9;c37.3-0.1,74.5,0,111.8,0c4.5,0,8.9-0.5,13.3-1.6c18.7-4.7,32.1-16,40.4-33.3c4.1-8.5,5.8-17.6,5.8-27&#10;&#9;&#9;C695.1,944.6,695.1,903,695.1,861.4z" transform="matrix(0.9999999999999999, 0, 0, 0.9999999999999999, -2.842170943040401e-14, 0)"/><path fill="#88A1A8" d="M1158.8,1276.1c119.5,0,239,0,358.5,0c1.9,0,3.9,0.1,5.7-0.2c4.6-0.6,7.8-3.8,8.6-8.4&#10;&#9;&#9;c0.1-0.8,0.2-1.6,0.2-2.4c0-5,0-9.9,0-14.9c0-0.5,0-1-0.2-1.4c-0.2-0.8-0.8-1.1-1.4-0.7c-4.1,2.3-8.5,2.4-13,2.4&#10;&#9;&#9;c-238.6,0-477.3,0-715.9,0c-1.4,0-2.9,0-4.3,0c-2.3,0-4.4-0.5-6.5-1.3c-3.8-1.4-3.8-1.5-3.9,2.8c0,4,0,8,0,12&#10;&#9;&#9;c0.1,8.5,3.7,12.1,12.4,12.2c1.4,0,2.9,0,4.3,0C921.8,1276.1,1040.3,1276.1,1158.8,1276.1z" transform="matrix(0.9999999999999999, 0, 0, 0.9999999999999999, -2.842170943040401e-14, 0)"/><path fill="#FFC5B6" d="M475.2,808c0.2-2.5-0.3-5.4-0.8-8.2c-1.7-9.2-7.9-18.5-20.9-19.9c-8.2-0.9-16.3-0.2-24.4,0.7&#10;&#9;&#9;c-9.5,1-19,2.8-28.5,4.1c-2.9,0.4-5.9,1.6-9,0.5c-0.5-0.2-1.3,0.1-1.8,0.3c-6,2-10.8,5.5-13.6,11.4c-2.1,4.3-2.8,8.8-2.9,13.5&#10;&#9;&#9;c0,1.4,0.7,1.9,2.2,1.6c3.4-0.8,6.8-1.7,10.2-2.5c14.7-3.7,29.4-7.4,44.1-11.2c0.9-0.2,1.8-0.5,2.8-0.6c1.4-0.1,2.9,1,3.1,2.4&#10;&#9;&#9;c0.2,1.2-0.5,2.6-1.7,3.1c-1,0.4-2.1,0.7-3.2,1c-19,4.8-38.1,9.7-57.1,14.5c-5.4,1.4-10.9,2.6-16.2,4.2&#10;&#9;&#9;c-12.7,3.7-20,16.7-16.7,29.4c3.4,13.5,17.3,20.6,28.8,17.6c3.1-0.8,6.2-1.5,9.3-2.2c20.2-4.7,40.4-9.5,60.7-14.1&#10;&#9;&#9;C457.2,849.5,474.8,833,475.2,808z" transform="matrix(0.9999999999999999, 0, 0, 0.9999999999999999, -2.842170943040401e-14, 0)"/><path fill="#FFC5B6" d="M397.6,907.4C397.6,907.4,397.6,907.4,397.6,907.4c11.5-0.3,23-0.6,34.5-0.8c1.9,0,3.8-0.2,5.7-0.6&#10;&#9;&#9;c9.6-1.8,17.3-9.2,19.2-18.6c2-9.8-1.8-19.7-9.9-25.3c-3.2-2.2-6.4-2.9-10.3-2c-21.7,5.2-43.5,10.2-65.3,15.2&#10;&#9;&#9;c-9.2,2.1-17.8,0.5-25.5-5.1c-0.6-0.5-1.3-1-1.9-1.5c-0.8-0.6-1.5-0.5-2.1,0.1c-0.5,0.4-0.8,1-1.2,1.5c-6,8.4-5.7,20,0.9,28.2&#10;&#9;&#9;c5.3,6.7,12.4,10,20.9,9.8C374.3,908.1,385.9,907.8,397.6,907.4z" transform="matrix(0.9999999999999999, 0, 0, 0.9999999999999999, -2.842170943040401e-14, 0)"/><path fill="#FFC5B6" d="M390.1,948.2C390.1,948.2,390.1,948.2,390.1,948.2c10.4-0.6,20.7-1.1,31.1-2c14.9-1.3,25.9-16.5,20.4-32.3&#10;&#9;&#9;c-0.6-1.6-1.1-2.3-3.3-1.7c-1.2,0.3-2.5,0.4-3.8,0.4c-12.4,0.3-24.9,0.6-37.3,0.9c-10.1,0.3-20.1,0.5-30.2,0.8&#10;&#9;&#9;c-3,0.1-3.2,0.3-4,3.1c-4.8,16.4,8.3,31.5,23.3,31C387.6,948.3,388.8,948.2,390.1,948.2z" transform="matrix(0.9999999999999999, 0, 0, 0.9999999999999999, -2.842170943040401e-14, 0)"/><path fill="#E8384A" d="M425.5,968.3c7.8,0,15.7,0,23.5,0c1.8,0,3.5,0,5.3,0c1.1,0,1.8-0.6,1.8-1.7c0-5.3,0.1-10.6,0-15.8&#10;&#9;&#9;c0-1.8-0.4-2.2-2.3-2.3c-6.1,0-12.2,0-18.2,0c-1.3,0-2.5,0.5-3.6,1c-3.9,2-8.1,2.7-12.5,3c-10.4,0.6-20.8,1.1-31.1,2&#10;&#9;&#9;c-17,1.4-31.9-12.4-32.2-29c0-3,0.1-6.1,0.9-9c0.4-1.5,0-2.1-1.3-2.5c-2-0.6-4-1.2-6-1.8c-1.3-0.4-1.8-0.1-1.8,1.3&#10;&#9;&#9;c-0.2,8.3,1.4,16.3,5.1,23.7c10.1,20,26.5,30.6,49,31.2C409.8,968.4,417.6,968.3,425.5,968.3z" transform="matrix(0.9999999999999999, 0, 0, 0.9999999999999999, -2.842170943040401e-14, 0)"/><path fill="#E8384A" d="M395.7,769.5c-5.9-0.2-14.5-0.4-23.2-0.9c-2.6-0.1-4.7,0.6-6.4,2.4c-0.4,0.5-0.9,0.9-1.4,1.3&#10;&#9;&#9;c-13.1,12.7-17.9,28.3-16.8,46.1c0.1,0.9,0.8,1.4,1.7,1c2.9-1.4,5.9-2.5,9-3.2c2.2-0.5,4.3-1.1,6.5-1.6c1.3-0.3,1.8-1.1,1.9-2.4&#10;&#9;&#9;c0.2-2.7,0.4-5.4,0.8-8.1c1.9-13,9.2-21.4,21.9-25.1c6.5-1.9,13.2-2.3,19.9-2.4c3.4-0.1,6.7-0.3,10-0.9c8-1.3,16.2-2.1,24.3-2.3&#10;&#9;&#9;c3.8-0.1,7.7,0,11.5,0.6c1.3,0.2,1.8-0.2,1.8-1.5c0.1-1.8,0.1-3.5,0.1-5.3c0-2.6,0-5.1,0-7.7c0-1.1-0.6-1.7-1.8-1.8&#10;&#9;&#9;c-0.8,0-1.6,0-2.4-0.1c-2.8-0.4-4.7,0.7-6.6,2.8c-6.7,7.2-15.2,10.4-25,9.8C413.7,769.9,406,769.7,395.7,769.5z" transform="matrix(0.9999999999999999, 0, 0, 0.9999999999999999, -2.842170943040401e-14, 0)"/><path fill="#88A1A8" d="M761.3,974.2C761.3,974.2,761.3,974.2,761.3,974.2c5.6,0,11.2,0,16.8,0c2.1,0,2.4-0.4,2.5-2.5&#10;&#9;&#9;c0.1-3.8,0-7.7,0-11.5c0-2.1,0-4.2-0.1-6.2c0-0.9-0.6-1.5-1.5-1.6c-1-0.1-1.9-0.1-2.9-0.1c-9.9,0-19.8,0-29.7,0&#10;&#9;&#9;c-1.1,0-2.3,0-3.3,0.2c-4.8,0.8-8.3,4.8-8.4,9.6c0,1.3,0.2,2.5,0.3,3.8c0.4,3.5,2.5,5.8,5.4,7.4c1.6,0.9,3.4,1,5.1,1&#10;&#9;&#9;C750.8,974.2,756.1,974.2,761.3,974.2z" transform="matrix(0.9999999999999999, 0, 0, 0.9999999999999999, -2.842170943040401e-14, 0)"/><path fill="#D6E9F6" d="M457.1,922.2C457.1,922.2,457.1,922.2,457.1,922.2c0-5.1,0-10.2,0-15.3c0-1.1,0-2.2-0.1-3.3&#10;&#9;&#9;c0-0.3-0.2-0.6-0.4-0.7c-0.2-0.1-0.7-0.1-0.8,0.1c-2.5,2.3-5,4.5-8,6.1c-0.8,0.4-1.1,1.1-0.8,2c0.3,1.1,0.7,2.1,1,3.2&#10;&#9;&#9;c2.1,8.1,1.1,15.8-3,23.1c-0.8,1.5-2.2,2.7-2.6,4.5c1.7,1.2,3.6,0.5,5.4,0.6c2.2,0.1,4.5,0.1,6.7,0c2.3-0.1,2.5-0.3,2.6-2.4&#10;&#9;&#9;C457.1,934,457.1,928.1,457.1,922.2z" transform="matrix(0.9999999999999999, 0, 0, 0.9999999999999999, -2.842170943040401e-14, 0)"/><path fill="#D6E9F6" d="M457.1,857.6C457,857.6,457,857.6,457.1,857.6c0-1.1,0-2.2-0.1-3.3c-0.1-0.8-0.7-1.1-1.3-0.7&#10;&#9;&#9;c-1.7,1-3.8,1.4-5,3.2c0.9,1.6,2.6,2.3,3.8,3.6c0.4,0.5,0.9,0.9,1.4,1.3c0.2,0.1,0.6,0.2,0.9,0.1c0.2-0.1,0.4-0.5,0.4-0.7&#10;&#9;&#9;C457.1,859.8,457.1,858.7,457.1,857.6z" transform="matrix(0.9999999999999999, 0, 0, 0.9999999999999999, -2.842170943040401e-14, 0)"/><path fill="#151D38" d="M1852,968.3c-0.2,0.4-0.7,0.8-0.7,1.2c-0.8,8.6-2.9,17-4.5,25.5c-4.6,24-9.3,48-14,72&#10;&#9;&#9;c-4.7,24.2-9.4,48.3-14.1,72.5c-4.6,23.8-9.2,47.7-13.8,71.5c-4.6,23.8-9.2,47.7-13.9,71.5c-4.7,24-9.3,48-14,72&#10;&#9;&#9;c-4.3,22.1-8.6,44.2-12.8,66.4c-4.7,24.2-9.4,48.3-14.1,72.5c-3.9,20.2-7.8,24.3-11.7,44.5c-0.4,2.1-1-1.5-2.6,0&#10;&#9;&#9;c-0.6,0-1.3,0-1.9,0c-1.7-1.9-2,2.6-1.5,0c8-40.8,15.8-66.5,23.7-107.3c8.3-42.8,16.6-85.7,24.9-128.5c7.9-40.5,15.8-81,23.6-121.5&#10;&#9;&#9;c8.5-43.8,16.9-87.6,25.4-131.4c5.2-26.8,10.4-53.7,15.7-80.5c1.1-5.5,0.6-10.8-2.3-15.8c-6-10.2-20.5-14.6-31.3-4.7&#10;&#9;&#9;c-3.8,3.4-6.1,7.8-7.1,12.8c-2.9,14.2-5.8,28.5-8.7,42.7c-3.6,17.5-7.2,35.1-10.8,52.6c-0.2,1.1-0.6,2.2-1,3.2&#10;&#9;&#9;c-0.4,0.9-1.8,1.6-2.8,1.4c-1.3-0.2-2.5-1.3-2.5-2.5c0-0.9,0.1-1.9,0.3-2.8c3.2-15.7,6.5-31.3,9.6-47c5.6-27.9,11.3-55.8,16.9-83.7&#10;&#9;&#9;c0.5-2.5,1.1-5,1.6-7.5c2-11.2-4.6-21.5-15.4-24.2c-10.6-2.6-21.4,3.4-24.6,13.8c-0.8,2.7-1.3,5.6-1.9,8.4&#10;&#9;&#9;c-5.3,26.8-10.6,53.6-15.9,80.4c-3,15.1-6,30.1-9,45.2c-0.2,0.8-0.3,1.6-0.5,2.3c-0.5,1.4-2,2.2-3.5,1.9c-1.3-0.3-2.2-1.3-2.2-2.8&#10;&#9;&#9;c0-1.3,0.2-2.6,0.5-3.8c4.9-24.8,9.9-49.5,14.8-74.3c5.1-25.9,10.2-51.8,15.4-77.6c2.2-11.1-4.8-23.2-18.1-24.9&#10;&#9;&#9;c-8.6-1.1-19,4.1-22,14.7c-1.1,3.8-1.8,7.8-2.5,11.7c-7.2,36.4-14.4,72.8-21.5,109.2c-2.2,11.1-4.4,22.3-6.6,33.4&#10;&#9;&#9;c-0.2,1.2-0.6,2.5-1,3.7c-0.5,1.2-2,1.9-3.2,1.6c-1.3-0.3-2.3-1.5-2.3-2.7c0-0.9,0.2-1.9,0.4-2.8c5.4-27.4,10.9-54.9,16.3-82.3&#10;&#9;&#9;c3.2-16.2,6.4-32.3,9.6-48.5c0.8-4,0.5-8-0.8-11.8c-3-8.6-10.8-14.1-19.8-13.9c-8.8,0.2-16.7,6.1-19.2,14.7&#10;&#9;&#9;c-1.2,4.1-1.9,8.4-2.7,12.7c-6,30.3-12,60.5-18,90.8c-4.6,23.4-9.2,46.7-13.8,70.1c-0.2,1.3-0.5,2.5-1,3.7c-0.4,1.2-2,1.9-3.1,1.7&#10;&#9;&#9;c-1.2-0.3-2.4-1.5-2.4-2.7c0-0.9,0.2-1.9,0.4-2.8c3.8-19.3,7.6-38.6,11.4-57.9c2.2-11.3,4.4-22.6,6.7-33.9&#10;&#9;&#9;c0.9-4.5,0.4-8.9-1.4-13.2c-3.4-8.2-11.1-13.2-19.6-12.7c-8.8,0.5-16.4,6.2-18.8,14.6c-1.2,4.3-2,8.7-2.8,13.1&#10;&#9;&#9;c-5.7,28.5-11.3,57.1-17,85.6c-5.1,25.7-10.2,51.4-15.2,77.2c-4.1,21.2,9.4,42,30.5,47.1c2,0.5,4.1,0.9,6,1.6&#10;&#9;&#9;c15.2,5.4,22,20.8,19.8,33c-1.4,7.9-3,15.7-4.5,23.5c-5,25.1-9.9,50.2-14.9,75.3c-4.7,23.5-9.3,47-14,70.6&#10;&#9;&#9;c-4.9,24.8-9.8,49.6-14.7,74.3c-5,25.1-9.9,52.2-14.9,77.3c-0.8,4.2-1.7-4.2-2.5,0c-0.7,3.7-1.4-3.6-2.8,0c-1,0-1.9,0-2.9,0&#10;&#9;&#9;c-1.6-2-1.9,2.6-1.4,0c6.5-32.4,13-49.8,19.4-82.3c7.5-37.9,15-75.9,22.5-113.8c7.5-37.9,15.1-75.9,22.6-113.8&#10;&#9;&#9;c0.7-3.3,1.4-6.6,1.9-9.9c1.6-9-0.5-16.8-7.1-23.3c-2.8-2.7-6.1-4.6-9.9-5.7c-1.2-0.4-2.5-0.6-3.7-0.9&#10;&#9;&#9;c-19.6-5.2-31.3-17.8-35.5-37.4c-1.2-5.7-0.9-11.5,0.2-17.2c7.4-37.5,14.9-74.9,22.3-112.4c4-20.1,7.9-40.1,11.9-60.2&#10;&#9;&#9;c1.6-8.1,5.7-14.5,13-18.6c2.3-1.3,3-2.7,3-5.3c-0.1-21-0.1-41.9-0.1-62.9c0-4.3-0.1-8.6,0-13c1-40,28.5-76.3,68.3-87.8&#10;&#9;&#9;c8.2-2.4,16.5-3.7,25.1-3.7c8.3,0,16.6-0.3,24.9,0.7c21.1,2.5,39.3,11.1,54.5,25.7c16.4,15.7,26,35,28.7,57.6&#10;&#9;&#9;c0.5,4.4,0.6,8.9,0.6,13.4c0.1,20.8,0,41.6,0,62.4c0,1,0,1.9,0,2.9c0,4.2-0.2,4.1,4.1,4.5c9,0.7,16.1,5,20.9,12.7&#10;&#9;&#9;c1.5,2.3,2.6,4.8,2.8,7.6c0,0.7,0.2,1.2,0.8,1.7C1852,961.9,1852,965.1,1852,968.3z" transform="matrix(0.9999999999999999, 0, 0, 0.9999999999999999, -2.842170943040401e-14, 0)"/><path fill="#B4C5CC" d="M1627.3,896.7c0,12.3,0,24.6,0,37c0,1.3,0,2.6,0.1,3.8c0.1,0.7,0.5,1.1,1.3,1.1c0.8,0,1.6,0,2.4,0&#10;&#9;&#9;c9.3,0,16.7,3.7,22.1,11.3c0.4,0.5,0.7,1.1,1.2,1.5c0.4,0.4,0.9,0.1,1.1-0.3c0.3-0.7,0.5-1.5,0.6-2.3c3.3-16.5,6.5-32.9,9.8-49.4&#10;&#9;&#9;c0.8-4.1,1.5-8.2,2.6-12.2c3.3-11.4,13.5-19,25.4-19c2.7,0,5.4,0.3,8.1,1.1c1.2,0.4,1.9-0.2,2-1.4c0.1-1.3,0.1-2.6,0.1-3.8&#10;&#9;&#9;c0-13.1,0-26.2,0-39.4c0-1.4,0-2.9,0.1-4.3c0.5-7.9,6.7-14.1,14.5-14.6c2.4-0.1,4.8,0,7.2,0c7.6,0,14.7,6.8,14.9,14.7&#10;&#9;&#9;c0.1,1.6,0.1,3.2,0.1,4.8c0,8.8,0,17.6,0,26.4c0,4.4,0,4.2,4.2,4.2c5.8-0.1,11.1,1.6,15.7,5.1c8.7,6.6,11.9,15.5,10.6,26.2&#10;&#9;&#9;c-0.1,0.9-0.4,1.9-0.6,2.8c-0.1,0.4,0.1,0.9,0.1,1.4c0.4,0,0.9,0,1.3-0.2c0.9-0.4,1.6-1,2.5-1.5c15.4-8.2,34.1,0,38.6,16.8&#10;&#9;&#9;c1.2,4.4,1,8.9,0.1,13.3c-1.3,6.6-2.6,13.2-3.9,19.8c-0.1,0.6-0.1,1.3-0.2,1.9c0,0.5,0.2,0.6,0.6,0.4c2.4-1.3,4.8-2.5,7.1-3.9&#10;&#9;&#9;c0.3-0.2,0.5-0.8,0.6-1.2c0.1-0.6,0.1-1.3,0.1-1.9c0-24.2,0.2-48.3-0.1-72.5c-0.3-21.8-8.1-40.9-22.6-57.2&#10;&#9;&#9;c-14.4-16.1-32.4-25.7-53.8-28.9c-9.8-1.4-19.8-1.3-29.7-0.7c-4.5,0.2-8.9,0.7-13.3,1.7c-43,9.2-70.9,47-70.7,86.6&#10;&#9;&#9;C1627.3,874.9,1627.3,885.8,1627.3,896.7z" transform="matrix(0.9999999999999999, 0, 0, 0.9999999999999999, -2.842170943040401e-14, 0)"/><path fill="#88A1A8" d="M1709.9,846.1c0,0.8,0,1.6,0,2.4c0,7.3,0,14.7,0,22c0,1.1-0.3,2.4,0.6,3.2c2.4,2.1,4.3,4.7,6.3,7.2&#10;&#9;&#9;c0.4,0.5,0.9,0,1.1-0.4c0.3-0.6,0.4-1.2,0.5-1.8c1.6-8.9,6.2-15.6,14.3-19.8c1.7-0.9,2.2-2,2.2-3.8c-0.1-10.7,0-21.4,0-32.1&#10;&#9;&#9;c0-0.6,0-1.3-0.1-1.9c-0.6-5.4-4.5-9-9.8-9.2c-1.9-0.1-3.8-0.1-5.8,0c-3.3,0.2-5.7,1.8-7.6,4.4c-1.3,1.9-1.7,4.1-1.7,6.4&#10;&#9;&#9;C1709.9,830.4,1709.9,838.2,1709.9,846.1z" transform="matrix(0.9999999999999999, 0, 0, 0.9999999999999999, -2.842170943040401e-14, 0)"/><path fill="#151D38" d="M503.8,458.6c0-12.7,2.8-24.7,7.6-36.4c3.4-8.3,7.8-16.1,12.3-23.9c3.6-6.2,7.3-12.4,10.8-18.7&#10;&#9;&#9;c3.1-5.4,5.7-11.1,7.7-17c3-8.5,4.4-17.3,4.1-26.4c-0.4-12.5-2.2-24.8-6.5-36.7c-2.9-7.9-6.7-15.2-12.2-21.6&#10;&#9;&#9;c-0.4-0.5-0.8-1-1.2-1.5c-0.7-1.2-0.5-2.6,0.3-3.6c0.9-1,2.8-1.2,4-0.3c0.9,0.7,1.6,1.6,2.3,2.4c3,3.6,5.4,7.5,7.6,11.6&#10;&#9;&#9;c5.7,10.9,8.9,22.6,10.5,34.7c0.6,4.9,1,9.9,1.1,14.8c0.4,11.7-2,22.9-6.4,33.6c-2.8,6.7-6.1,13-9.7,19.2&#10;&#9;&#9;c-3.8,6.5-7.6,13-11.3,19.5c-4.3,7.7-8.1,15.6-10.8,24c-6.3,19.8-5.3,39.4,2.2,58.7c3,7.8,6.8,15.2,10.8,22.4&#10;&#9;&#9;c4,7.1,8.1,14.2,12,21.3c4.2,7.6,7.8,15.4,10.6,23.6c2.3,6.9,3.6,13.9,4.2,21.1c0.1,1.7,0.2,3.5,0,5.3c-0.1,1.5-1.5,2.5-3.1,2.4&#10;&#9;&#9;c-1.3-0.1-2.3-0.9-2.6-2.4c-0.2-0.9-0.2-1.9-0.3-2.9c-0.4-11.7-3.7-22.7-8.6-33.2c-3.2-7-7-13.7-10.8-20.3&#10;&#9;&#9;c-3.8-6.7-7.6-13.3-11.2-20.1c-5.2-9.9-9.5-20.3-11.6-31.4c-0.6-2.8-1.1-5.7-1.4-8.5C504,465.3,503.9,462,503.8,458.6z" transform="matrix(0.9999999999999999, 0, 0, 0.9999999999999999, -2.842170943040401e-14, 0)"/><path fill="#151D38" d="M571.1,457.8c-0.2-12.7,3.1-25.7,8.6-38.3c3.2-7.3,7.1-14.3,11.1-21.2c4-6.9,8-13.8,11.9-20.8&#10;&#9;&#9;c1.8-3.2,3.3-6.6,4.7-10c4.7-11.1,6.7-22.6,5.9-34.7c-0.7-10.2-2.1-20.4-5.3-30.1c-0.3-0.9-0.6-1.8-0.7-2.8c-0.2-1.2,0.8-2.5,2-2.9&#10;&#9;&#9;c1.3-0.4,2.8,0,3.4,1.1c0.6,1.1,1,2.3,1.4,3.6c3.4,10.7,4.9,21.8,5.4,33c0.6,14.7-2.8,28.5-9.3,41.7c-3.2,6.5-6.8,12.7-10.4,18.9&#10;&#9;&#9;c-4.4,7.4-8.8,14.8-12.6,22.6c-4.5,9.4-7.9,19.2-9.3,29.6c-1.6,12.1-0.7,23.9,2.7,35.6c2.6,8.8,6.3,17.1,10.6,25.1&#10;&#9;&#9;c3.7,6.9,7.7,13.7,11.5,20.5c3.6,6.4,7.1,12.9,10.1,19.6c0.5,1.2,1,2.4,1.3,3.6c0.3,1.3-0.4,2.5-1.7,3.1c-1.2,0.6-2.6,0.3-3.4-0.9&#10;&#9;&#9;c-0.5-0.6-0.8-1.4-1.1-2.1c-3.4-7.9-7.7-15.5-11.9-23c-3.9-6.8-7.7-13.6-11.4-20.5c-5.2-9.9-9.4-20.3-11.7-31.4&#10;&#9;&#9;C571.6,471.1,571.1,465.1,571.1,457.8z" transform="matrix(0.9999999999999999, 0, 0, 0.9999999999999999, -2.842170943040401e-14, 0)"/><path fill="#151D38" d="M539,460.1c0.2-17,4.1-31.4,10.8-45.1c3.4-7,7.4-13.8,11.3-20.6c3.4-5.8,6.8-11.6,9.9-17.5&#10;&#9;&#9;c4.4-8.2,7.8-16.8,9.3-26.1c0.5-3.1,0.7-6.4,1-9.5c0.1-1,0.1-1.9,0.3-2.8c0.3-1.3,1.4-2.1,2.8-2.1c1.4,0,2.6,0.9,2.7,2.2&#10;&#9;&#9;c0.2,1.7,0.2,3.5,0.1,5.3c-0.7,8.7-2.7,17-5.9,25.1c-3.1,7.6-7,14.7-11.1,21.8c-3.7,6.4-7.4,12.7-11,19.1c-4.5,8-8.3,16.2-10.8,25&#10;&#9;&#9;c-5.3,18.4-4.4,36.7,2.3,54.6c3.3,8.9,7.6,17.3,12.2,25.5c3.1,5.6,6.3,11.1,9.5,16.7c0.6,1,1.1,1.9,1.5,3c0.5,1.3,0,2.7-1.1,3.4&#10;&#9;&#9;c-1.2,0.8-2.9,0.6-3.9-0.5c-0.4-0.5-0.8-1-1.1-1.6c-5.7-10.4-12-20.4-17.1-31.1c-4.9-10.1-8.8-20.6-10.6-31.7&#10;&#9;&#9;C539.4,468.3,539.1,463.3,539,460.1z" transform="matrix(0.9999999999999999, 0, 0, 0.9999999999999999, -2.842170943040401e-14, 0)"/><path fill="#151D38" d="M599.2,459.5c-0.1-12.1,2.2-23,6.1-33.5c0.4-1,0.9-2.1,1.4-3c0.7-1,2.2-1.4,3.4-0.9c1,0.4,1.7,1.5,1.7,2.7&#10;&#9;&#9;c0,1.3-0.6,2.5-1,3.7c-2.5,6.9-4.2,14-5.1,21.4c-1.4,12.1,0.1,23.9,3.7,35.5c3,9.7,7.5,18.6,12.4,27.5c0.7,1.3,1.5,2.5,2.1,3.8&#10;&#9;&#9;c0.8,1.8,0.4,3.5-1,4.2c-1.4,0.8-3.1,0.3-4.2-1.2c-0.2-0.3-0.3-0.5-0.5-0.8c-6.9-12.1-13.1-24.5-16.4-38.2&#10;&#9;&#9;C600.1,473.3,599,466.1,599.2,459.5z" transform="matrix(0.9999999999999999, 0, 0, 0.9999999999999999, -2.842170943040401e-14, 0)"/><path fill="#151D38" d="M1159.3,739.6c106.7,0,213.4,0,320.2,0c1.8,0,3.5,0,5.3,0c8.5,0.3,14.7,6.2,15.6,14.6&#10;&#9;&#9;c0.1,1.3,0.1,2.6,0.1,3.8c0,97.8,0,195.5,0,293.3c0,1.9,0,3.8-0.4,5.7c-1.6,7.3-7.3,12.3-14.8,12.9c-1.6,0.1-3.2,0.1-4.8,0.1&#10;&#9;&#9;c-80.2,0-160.3,0-240.5,0c-133.8,0-267.5,0-401.3,0c-1.8,0-3.5,0.1-5.3,0c-8.8-0.5-15.1-7.1-15.4-15.9c0-1.3,0-2.6,0-3.8&#10;&#9;&#9;c0-97,0-193.9,0-290.9c0-1.6,0-3.2,0-4.8c0.4-8.5,7.6-14.8,14.8-14.9c1.9,0,3.8,0,5.8,0C945.6,739.6,1052.4,739.6,1159.3,739.6z" transform="matrix(0.9999999999999999, 0, 0, 0.9999999999999999, -2.842170943040401e-14, 0)"/><path fill="#88A1A8" d="M1160.3,1064.1c47,0,94,0,141.1,0c1.4,0,2.9,0,4.3,0c2.6-0.1,2.8-0.3,2.9-2.7c0-0.6,0-1.3,0-1.9&#10;&#9;&#9;c0-13.6,0-27.2,0-40.8c0-0.8,0-1.6,0-2.4c-0.1-1.7-0.5-2.1-2.4-2.2c-1.6-0.1-3.2,0-4.8,0c-94,0-188.1,0-282.1,0c-0.5,0-1,0-1.4,0&#10;&#9;&#9;c-6.7,0.1-6-0.6-6,5.8c0,12.6,0,25.3,0,37.9c0,7.1-0.7,6.3,6.5,6.3C1065.6,1064.1,1113,1064.1,1160.3,1064.1z" transform="matrix(0.9999999999999999, 0, 0, 0.9999999999999999, -2.842170943040401e-14, 0)"/><path fill="#88A1A8" d="M1427.4,848.3c20.6,0,41.3,0,61.9,0c5.3,0,5.1,0.6,5.1-5.3c0-12,0-24,0-36c0-6.6,0.5-6-5.9-6&#10;&#9;&#9;c-40.6,0-81.3,0-121.9,0c-1.3,0-2.6,0-3.8,0.1c-1.5,0.1-1.9,0.5-2,2.1c-0.1,0.8,0,1.6,0,2.4c0,12.6,0,25.3,0,37.9&#10;&#9;&#9;c0,5,0,4.7,4.7,4.7c0.8,0,1.6,0,2.4,0C1387.7,848.3,1407.5,848.3,1427.4,848.3z" transform="matrix(0.9999999999999999, 0, 0, 0.9999999999999999, -2.842170943040401e-14, 0)"/><path fill="#88A1A8" d="M1427.7,907.6c-20.6,0-41.2,0-61.9,0c-5.3,0-5.1-0.1-5.1,4.9c0,12.1,0,24.3,0,36.4c0,6.6-0.5,5.8,6,5.8&#10;&#9;&#9;c40.6,0,81.2,0,121.8,0c1,0,1.9,0,2.9,0c2.5-0.1,2.8-0.3,2.9-2.7c0-0.8,0-1.6,0-2.4c0-12.3,0-24.6,0-36.9c0-5.5,0.2-5.1-5.3-5.1&#10;&#9;&#9;C1468.6,907.6,1448.1,907.6,1427.7,907.6z" transform="matrix(0.9999999999999999, 0, 0, 0.9999999999999999, -2.842170943040401e-14, 0)"/><path fill="#88A1A8" d="M877.6,960.6c-16,0-32,0-47.9,0c-1.4,0-2.9,0-4.3,0.1c-0.7,0-1.2,0.5-1.2,1.2c-0.1,1.1-0.1,2.2-0.1,3.3&#10;&#9;&#9;c0,12.6,0,25.2,0,37.9c0,4.6,0,4.7,4.8,4.7c32.3,0,64.5,0,96.8,0c1.1,0,2.2-0.1,3.3-0.2c0.7-0.1,1.2-0.5,1.2-1.2&#10;&#9;&#9;c0.1-1,0.1-1.9,0.1-2.9c0-12.9,0-25.9,0-38.8c0-4.2,0.1-4.2-4.3-4.2C909.9,960.6,893.7,960.6,877.6,960.6z" transform="matrix(0.9999999999999999, 0, 0, 0.9999999999999999, -2.842170943040401e-14, 0)"/><path fill="#88A1A8" d="M1443,901.5c15,0,30,0,45.1,0c1.3,0,2.6,0,3.8,0c2-0.1,2.4-0.5,2.5-2.7c0-0.6,0-1.3,0-1.9&#10;&#9;&#9;c0-12.8,0-25.6,0-38.3c0-1,0-1.9-0.1-2.9c-0.1-0.9-0.7-1.4-1.6-1.4c-0.8,0-1.6-0.1-2.4-0.1c-31.5,0-62.9,0-94.4,0&#10;&#9;&#9;c-4.1,0-4.2,0-4.2,4.3c0,12.6,0,25.2,0,37.9c0,5.4-0.2,5.1,5.3,5.1C1412.3,901.5,1427.7,901.5,1443,901.5z" transform="matrix(0.9999999999999999, 0, 0, 0.9999999999999999, -2.842170943040401e-14, 0)"/><path fill="#88A1A8" d="M1442.9,1007.9c15.2,0,30.4,0,45.5,0c1.4,0,2.9,0,4.3-0.1c0.9-0.1,1.4-0.6,1.5-1.5c0.1-1,0.1-1.9,0.1-2.9&#10;&#9;&#9;c0-12.8,0-25.6,0-38.4c0-1,0-1.9-0.1-2.9c-0.1-0.9-0.6-1.4-1.5-1.4c-1,0-1.9-0.1-2.9-0.1c-31.2,0-62.3,0-93.5,0&#10;&#9;&#9;c-1.1,0-2.2,0-3.4,0.1c-0.7,0.1-1.2,0.5-1.2,1.2c-0.1,1-0.1,1.9-0.1,2.9c0,12.9,0,25.9,0,38.8c0,4.1,0.1,4.2,4.3,4.2&#10;&#9;&#9;C1411.6,1007.9,1427.3,1007.9,1442.9,1007.9z" transform="matrix(0.9999999999999999, 0, 0, 0.9999999999999999, -2.842170943040401e-14, 0)"/><path fill="#88A1A8" d="M861.7,954.7c11.2,0,22.4,0,33.5,0c4.2,0,4.2,0,4.2-4.2c0-12.5,0-24.9,0-37.4c0-5.8,0.4-5.5-5.4-5.5&#10;&#9;&#9;c-21.6,0-43.1,0-64.7,0c-1,0-1.9,0-2.9,0c-2.1,0.1-2.5,0.5-2.5,2.6c-0.1,3.7,0,7.3,0,11c0,10.2,0,20.4,0,30.7&#10;&#9;&#9;c0,2.5,0.3,2.8,2.7,2.9c1.1,0,2.2,0,3.4,0C840.6,954.7,851.2,954.7,861.7,954.7z" transform="matrix(0.9999999999999999, 0, 0, 0.9999999999999999, -2.842170943040401e-14, 0)"/><path fill="#88A1A8" d="M861.3,848.3c11,0,22.1,0,33.1,0c1.3,0,2.6,0,3.8-0.2c0.7-0.1,1.1-0.6,1.2-1.3c0.1-1,0.1-1.9,0.1-2.9&#10;&#9;&#9;c0-12.8,0-25.6,0-38.4c0-4.5,0-4.6-4.4-4.6c-22.2,0-44.4,0-66.7,0c-1,0-1.9,0-2.9,0.1c-0.9,0.1-1.4,0.7-1.5,1.6&#10;&#9;&#9;c-0.1,1-0.1,1.9-0.1,2.9c0,12.8,0,25.6,0,38.4c0,0.8,0,1.6,0,2.4c0,1.1,0.6,1.8,1.7,1.9c1.3,0,2.6,0.1,3.8,0.1&#10;&#9;&#9;C840.2,848.3,850.7,848.3,861.3,848.3z" transform="matrix(0.9999999999999999, 0, 0, 0.9999999999999999, -2.842170943040401e-14, 0)"/><path fill="#88A1A8" d="M857.2,1014c-9.1,0-18.2,0-27.3,0c-1.3,0-2.6,0-3.8,0.1c-1.4,0.1-1.9,0.6-2,2.2c-0.1,0.8,0,1.6,0,2.4&#10;&#9;&#9;c0,11.2,0,22.4,0,33.6c0,0.8,0,1.6,0.1,2.4c0.5,4.8,3.7,8.3,8.4,9.1c1.4,0.3,2.9,0.3,4.3,0.3c16,0,32,0,48,0c1.1,0,2.2,0,3.4-0.1&#10;&#9;&#9;c0.9-0.1,1.4-0.7,1.5-1.5c0.1-0.8,0.1-1.6,0.1-2.4c0-13.9,0-27.8,0-41.7c0-4.2-0.1-4.3-4.3-4.3C876,1014,866.6,1014,857.2,1014z" transform="matrix(0.9999999999999999, 0, 0, 0.9999999999999999, -2.842170943040401e-14, 0)"/><path fill="#88A1A8" d="M1464.7,1014c-8.3,0-16.6,0-24.9,0c-5.1,0-5.1,0-5.1,4.9c0,13.6,0.1,27.1,0.2,40.7c0,1,0,1.9,0.1,2.9&#10;&#9;&#9;c0.1,0.9,0.6,1.4,1.6,1.5c0.8,0.1,1.6,0.1,2.4,0.1c14.4,0,28.7,0,43.1,0c0.8,0,1.6,0,2.4-0.1c5.5-0.4,9.8-4.2,9.9-10.3&#10;&#9;&#9;c0-0.6,0-1.3,0-1.9c0-11,0-22,0-33.1c0-1.1-0.1-2.2-0.2-3.3c-0.1-0.7-0.6-1.2-1.2-1.2c-1.3-0.1-2.5-0.2-3.8-0.2&#10;&#9;&#9;C1481,1014,1472.8,1014,1464.7,1014z" transform="matrix(0.9999999999999999, 0, 0, 0.9999999999999999, -2.842170943040401e-14, 0)"/><path fill="#88A1A8" d="M1341.7,1064.1c7.3,0,14.7,0,22,0c5,0,5.1,0.3,5.1-4.9c0-13.4,0-26.8,0-40.3c0-0.8,0-1.6,0-2.4&#10;&#9;&#9;c-0.1-2-0.5-2.4-2.7-2.5c-0.6,0-1.3,0-1.9,0c-15,0-30,0-45,0c-0.8,0-1.6,0-2.4,0.1c-1.5,0.1-2,0.6-2.2,2c-0.1,0.8,0,1.6,0,2.4&#10;&#9;&#9;c0,13.7,0,27.5,0,41.2c0,0.8,0,1.6,0.1,2.4c0.1,1.4,0.6,1.9,2.1,2c1.1,0.1,2.2,0,3.4,0C1327.3,1064.1,1334.5,1064.1,1341.7,1064.1z&#10;&#9;&#9;" transform="matrix(0.9999999999999999, 0, 0, 0.9999999999999999, -2.842170943040401e-14, 0)"/><path fill="#88A1A8" d="M978.5,1064.1c7.7,0,15.3,0,23,0c4.2,0,4.2,0,4.2-4.3c0-13.7,0-27.5,0-41.2c0-1,0-1.9-0.1-2.9&#10;&#9;&#9;c-0.1-0.9-0.5-1.5-1.5-1.6c-0.8-0.1-1.6-0.1-2.4-0.1c-15.3,0-30.7,0-46,0c-4.2,0-4.2,0.1-4.2,4.3c0,13.9,0,27.8,0,41.7&#10;&#9;&#9;c0,0.8,0,1.6,0.1,2.4c0.1,0.9,0.6,1.5,1.5,1.6c1,0.1,1.9,0.1,2.9,0.1C963.5,1064.1,971,1064.1,978.5,1064.1z" transform="matrix(0.9999999999999999, 0, 0, 0.9999999999999999, -2.842170943040401e-14, 0)"/><path fill="#88A1A8" d="M1401.5,1064.1C1401.5,1064.1,1401.5,1064.1,1401.5,1064.1c8.2,0,16.3,0,24.5,0c2.5,0,2.8-0.3,2.9-2.7&#10;&#9;&#9;c0-0.6,0-1.3,0-1.9c0-13.7-0.1-27.5-0.1-41.2c0-4.1-0.1-4.1-4.3-4.1c-15,0-30.1,0-45.1,0c-1,0-1.9,0-2.9,0.1&#10;&#9;&#9;c-0.9,0.1-1.5,0.5-1.5,1.5c-0.1,1-0.1,1.9-0.1,2.9c0,13.7,0,27.5,0,41.2c0,0.6,0,1.3,0,1.9c0.1,1.9,0.5,2.3,2.2,2.4&#10;&#9;&#9;c1.1,0.1,2.2,0,3.4,0C1387.4,1064.1,1394.4,1064.1,1401.5,1064.1z" transform="matrix(0.9999999999999999, 0, 0, 0.9999999999999999, -2.842170943040401e-14, 0)"/><path fill="#88A1A8" d="M1019.1,745.5c-7,0-14.1,0-21.1,0c-1.1,0-2.2,0-3.4,0.1c-0.9,0.1-1.4,0.6-1.5,1.6c-0.1,1-0.1,1.9-0.1,2.9&#10;&#9;&#9;c0,13.4,0,26.8,0,40.3c0,1,0,1.9,0.1,2.9c0.1,0.9,0.6,1.5,1.5,1.6c1.1,0.1,2.2,0.1,3.3,0.1c13.7,0,27.5,0,41.2,0c1,0,1.9,0,2.9-0.1&#10;&#9;&#9;c1.4-0.1,1.9-0.6,2-2.1c0.1-0.8,0-1.6,0-2.4c0-13.4,0-26.8,0-40.3c0-1,0-1.9-0.1-2.9c-0.1-0.9-0.5-1.5-1.5-1.5&#10;&#9;&#9;c-1-0.1-1.9-0.1-2.9-0.1C1032.8,745.5,1026,745.5,1019.1,745.5z" transform="matrix(0.9999999999999999, 0, 0, 0.9999999999999999, -2.842170943040401e-14, 0)"/><path fill="#88A1A8" d="M1417.3,745.5c-6.9,0-13.8,0-20.6,0c-1.1,0-2.2,0-3.4,0.1c-0.9,0-1.5,0.6-1.5,1.5c-0.1,1.1-0.1,2.2-0.1,3.4&#10;&#9;&#9;c0,13.1,0,26.2,0,39.3c0,1,0,1.9,0,2.9c0.1,1.7,0.6,2.1,2.4,2.2c0.6,0,1.3,0,1.9,0c14.1,0,28.2,0,42.2,0c4.2,0,4.3-0.1,4.3-4.3&#10;&#9;&#9;c0-13.6,0-27.2,0-40.8c0-0.6,0-1.3,0-1.9c-0.1-2-0.4-2.3-2.2-2.4c-1.1,0-2.2,0-3.4,0C1430.4,745.5,1423.8,745.5,1417.3,745.5z" transform="matrix(0.9999999999999999, 0, 0, 0.9999999999999999, -2.842170943040401e-14, 0)"/><path fill="#88A1A8" d="M895.7,1038.6C895.7,1038.6,895.7,1038.6,895.7,1038.6c0,7.7,0,15.3,0,23c0,1.9,0.5,2.3,2.2,2.4&#10;&#9;&#9;c1.1,0.1,2.2,0,3.4,0c12.9,0,25.9,0,38.8,0c1,0,1.9,0,2.9,0c2.2-0.1,2.5-0.4,2.6-2.5c0.1-2.2,0-4.5,0-6.7c0-12.6,0-25.3,0-37.9&#10;&#9;&#9;c0-2.5-0.4-2.8-2.7-2.9c-0.6,0-1.3,0-1.9,0c-13.6,0-27.2,0-40.8,0c-1,0-1.9,0-2.9,0.1c-0.9,0.1-1.5,0.6-1.5,1.5&#10;&#9;&#9;c-0.1,1.1-0.1,2.2-0.1,3.4C895.7,1025.5,895.7,1032,895.7,1038.6z" transform="matrix(0.9999999999999999, 0, 0, 0.9999999999999999, -2.842170943040401e-14, 0)"/><path fill="#88A1A8" d="M1360.5,745.5C1360.5,745.5,1360.5,745.5,1360.5,745.5c-7.7,0-15.3,0-23,0c-2.6,0-2.7,0.2-2.8,2.7&#10;&#9;&#9;c0,0.6,0,1.3,0,1.9c0,13.3,0,26.5,0,39.8c0,1,0,1.9,0,2.9c0.1,1.4,0.6,1.9,2.1,2c0.8,0.1,1.6,0.1,2.4,0.1c14.1,0,28.1,0,42.2,0&#10;&#9;&#9;c4.2,0,4.2-0.1,4.2-4.2c0-13.7,0-27.5,0-41.2c0-0.8,0-1.6-0.1-2.4c-0.1-0.9-0.6-1.4-1.5-1.5c-1,0-1.9-0.1-2.9-0.1&#10;&#9;&#9;C1374.2,745.5,1367.3,745.5,1360.5,745.5z" transform="matrix(0.9999999999999999, 0, 0, 0.9999999999999999, -2.842170943040401e-14, 0)"/><path fill="#88A1A8" d="M905.2,745.5c-6.9,0-13.7,0-20.6,0c-1.3,0-2.6,0-3.8,0.1c-0.7,0-1.2,0.5-1.3,1.2c-0.1,0.8-0.1,1.6-0.1,2.4&#10;&#9;&#9;c0,13.9,0,27.8,0,41.7c0,0.8,0,1.6,0.1,2.4c0.1,0.9,0.6,1.4,1.5,1.5c0.5,0.1,1,0.1,1.4,0.1c14.8,0,29.7,0,44.5,0&#10;&#9;&#9;c3,0,3.2-0.3,3.3-3.3c0-0.5,0-1,0-1.4c0-13.4,0-26.8,0-40.2c0-1,0-1.9-0.1-2.9c-0.1-0.9-0.6-1.4-1.5-1.5c-1-0.1-1.9-0.1-2.9-0.1&#10;&#9;&#9;C918.9,745.5,912.1,745.5,905.2,745.5z" transform="matrix(0.9999999999999999, 0, 0, 0.9999999999999999, -2.842170943040401e-14, 0)"/><path fill="#88A1A8" d="M961.6,794.9c6.7,0,13.4,0,20.1,0c1.3,0,2.6,0,3.8-0.1c0.9-0.1,1.4-0.6,1.5-1.6c0-0.8,0.1-1.6,0.1-2.4&#10;&#9;&#9;c0-13.7,0-27.5,0-41.2c0-0.8,0-1.6,0-2.4c0-1.2-0.8-1.7-1.9-1.7c-0.8,0-1.6,0-2.4,0c-14,0-28.1,0-42.1,0c-1,0-1.9,0-2.9,0.1&#10;&#9;&#9;c-0.9,0.1-1.4,0.6-1.5,1.5c-0.1,1-0.1,1.9-0.1,2.9c0,13.4,0,26.8,0,40.2c0,0.8,0,1.6,0,2.4c0.1,1.7,0.5,2.1,2.4,2.2&#10;&#9;&#9;c1.1,0.1,2.2,0,3.4,0C948.5,794.9,955.1,794.9,961.6,794.9z" transform="matrix(0.9999999999999999, 0, 0, 0.9999999999999999, -2.842170943040401e-14, 0)"/><path fill="#88A1A8" d="M1303.4,745.5c-6.9,0-13.7,0-20.6,0c-1.1,0-2.2,0-3.3,0.1c-0.9,0-1.5,0.6-1.5,1.5c-0.1,0.8-0.1,1.6-0.1,2.4&#10;&#9;&#9;c0,13.7,0,27.5,0,41.2c0,4.2,0,4.2,4.2,4.2c14,0,28.1,0,42.1,0c1,0,1.9,0,2.9-0.1c0.9-0.1,1.5-0.6,1.5-1.5c0-0.8,0.1-1.6,0.1-2.4&#10;&#9;&#9;c0-13.9,0-27.8,0-41.7c0-0.8,0-1.6-0.1-2.4c-0.1-0.7-0.6-1.1-1.3-1.2c-1-0.1-1.9-0.1-2.9-0.1&#10;&#9;&#9;C1317.4,745.5,1310.4,745.5,1303.4,745.5z" transform="matrix(0.9999999999999999, 0, 0, 0.9999999999999999, -2.842170943040401e-14, 0)"/><path fill="#88A1A8" d="M1075.8,745.5c-6.9,0-13.8,0-20.6,0c-1.1,0-2.2,0-3.4,0.1c-0.9,0-1.5,0.5-1.6,1.4c-0.1,1-0.1,1.9-0.1,2.9&#10;&#9;&#9;c0,13.4,0,26.9,0,40.3c0,1,0,1.9,0.1,2.9c0,1.2,0.7,1.7,1.8,1.7c1.4,0,2.9,0.1,4.3,0.1c12.8,0,25.6,0,38.4,0c1.1,0,2.2,0,3.4,0&#10;&#9;&#9;c2.4-0.1,2.8-0.4,2.9-2.8c0-0.6,0-1.3,0-1.9c0-13.4,0-26.9,0-40.3c0-0.5,0-1,0-1.4c-0.1-2.7-0.2-2.8-3.2-2.9c-1,0-1.9,0-2.9,0&#10;&#9;&#9;C1088.6,745.5,1082.2,745.5,1075.8,745.5z" transform="matrix(0.9999999999999999, 0, 0, 0.9999999999999999, -2.842170943040401e-14, 0)"/><path fill="#88A1A8" d="M1132.5,745.5c-6.9,0-13.7,0-20.6,0c-1.1,0-2.2,0-3.3,0.1c-0.9,0.1-1.4,0.7-1.5,1.6&#10;&#9;&#9;c-0.1,0.8-0.1,1.6-0.1,2.4c0,13.7,0,27.5,0,41.2c0,4.1,0.1,4.1,4.3,4.1c14,0,28.1,0,42.1,0c1,0,1.9,0,2.9-0.1&#10;&#9;&#9;c0.9-0.1,1.4-0.7,1.4-1.6c0-1,0.1-1.9,0.1-2.9c0-13.4,0-26.8,0-40.2c0-1,0-1.9-0.1-2.9c0-0.9-0.5-1.5-1.4-1.6&#10;&#9;&#9;c-1-0.1-1.9-0.1-2.9-0.1C1146.5,745.5,1139.5,745.5,1132.5,745.5z" transform="matrix(0.9999999999999999, 0, 0, 0.9999999999999999, -2.842170943040401e-14, 0)"/><path fill="#88A1A8" d="M1189.5,745.5c-6.9,0-13.7,0-20.6,0c-1.1,0-2.2,0-3.4,0.1c-1.2,0.1-1.7,0.8-1.7,1.9c0,0.8,0,1.6,0,2.4&#10;&#9;&#9;c0,13.6,0,27.2,0,40.7c0,4.2,0.1,4.2,4.2,4.3c0.3,0,0.6,0,1,0c13.6,0,27.2,0,40.7,0c1,0,1.9,0,2.9-0.1c1.6-0.1,2-0.5,2.1-1.9&#10;&#9;&#9;c0.1-0.8,0.1-1.6,0.1-2.4c0-13.6,0-27.2,0-40.7c0-1-0.1-1.9-0.1-2.9c-0.1-0.7-0.5-1.2-1.2-1.3c-1-0.1-1.9-0.1-2.9-0.1&#10;&#9;&#9;C1203.6,745.5,1196.6,745.5,1189.5,745.5z" transform="matrix(0.9999999999999999, 0, 0, 0.9999999999999999, -2.842170943040401e-14, 0)"/><path fill="#88A1A8" d="M1246.6,745.5c-6.7,0-13.4,0-20.2,0c-1.3,0-2.6,0-3.8,0.1c-0.9,0-1.5,0.5-1.6,1.4c-0.1,1-0.1,1.9-0.1,2.9&#10;&#9;&#9;c0,13.6,0,27.2,0,40.8c0,4.2,0.1,4.2,4.3,4.2c14.1,0,28.1,0,42.2,0c0.6,0,1.3,0,1.9,0c1.9-0.1,2.3-0.5,2.4-2.2c0.1-0.8,0-1.6,0-2.4&#10;&#9;&#9;c0-13.4,0-26.9,0-40.3c0-1,0-1.9-0.1-2.9c-0.1-1-0.7-1.4-1.6-1.5c-1.1-0.1-2.2-0.1-3.4-0.1C1260.1,745.5,1253.4,745.5,1246.6,745.5&#10;&#9;&#9;z" transform="matrix(0.9999999999999999, 0, 0, 0.9999999999999999, -2.842170943040401e-14, 0)"/><path fill="#88A1A8" d="M1018.7,901.5c6.7,0,13.4,0,20.1,0c1.3,0,2.6,0,3.8-0.1c0.7-0.1,1.2-0.5,1.3-1.2c0.1-0.9,0.2-1.9,0.2-2.9&#10;&#9;&#9;c0-13,0-25.9,0-38.9c0-4.2-0.1-4.2-4.3-4.2c-14.2,0-28.5,0-42.7,0c-0.8,0-1.6,0-2.4,0.1c-0.9,0.1-1.5,0.6-1.6,1.5&#10;&#9;&#9;c-0.1,1-0.1,1.9-0.1,2.9c0,12.8,0,25.6,0,38.4c0,1,0,1.9,0.1,2.9c0.1,0.9,0.7,1.5,1.5,1.5c1.3,0.1,2.6,0.1,3.8,0.1&#10;&#9;&#9;C1005.3,901.5,1012,901.5,1018.7,901.5z" transform="matrix(0.9999999999999999, 0, 0, 0.9999999999999999, -2.842170943040401e-14, 0)"/><path fill="#88A1A8" d="M1018.8,960.6c-7,0-14.1,0-21.1,0c-1.1,0-2.2,0-3.3,0.1c-0.7,0.1-1.1,0.6-1.2,1.3c-0.1,1-0.1,1.9-0.1,2.9&#10;&#9;&#9;c0,12.8,0,25.6,0,38.4c0,1,0,1.9,0.1,2.9c0,0.9,0.6,1.5,1.5,1.6c1.3,0.1,2.6,0.1,3.8,0.1c12.2,0,24.3,0,36.5,0c1.9,0,3.8,0,5.8,0&#10;&#9;&#9;c3.3-0.1,3.3-0.1,3.4-3.6c0-0.3,0-0.6,0-1c0-12.6,0-25.3,0-37.9c0-1.1,0-2.2-0.1-3.4c-0.1-0.7-0.5-1.2-1.2-1.3&#10;&#9;&#9;c-1.1-0.1-2.2-0.1-3.4-0.1C1032.6,960.6,1025.7,960.6,1018.8,960.6z" transform="matrix(0.9999999999999999, 0, 0, 0.9999999999999999, -2.842170943040401e-14, 0)"/><path fill="#88A1A8" d="M1215.6,848.3c6.9,0,13.7,0,20.6,0c1.1,0,2.2,0,3.3-0.1c0.7,0,1.2-0.5,1.3-1.2c0.1-1.3,0.2-2.5,0.2-3.8&#10;&#9;&#9;c0-6.2,0-12.5,0-18.7c0-6.9,0-13.7,0-20.6c0-2.5-0.3-2.7-2.7-2.8c-0.6,0-1.3,0-1.9,0c-13.9,0-27.8,0-41.7,0c-1,0-1.9,0-2.9,0.1&#10;&#9;&#9;c-0.9,0-1.5,0.6-1.6,1.5c-0.1,0.8-0.1,1.6-0.1,2.4c0,13.1,0,26.2,0,39.3c0,0.6,0,1.3,0,1.9c0.1,1.6,0.5,2,2,2.1&#10;&#9;&#9;c1.1,0.1,2.2,0,3.4,0C1202.1,848.3,1208.9,848.3,1215.6,848.3z" transform="matrix(0.9999999999999999, 0, 0, 0.9999999999999999, -2.842170943040401e-14, 0)"/><path fill="#88A1A8" d="M1215,954.7C1215,954.7,1215,954.7,1215,954.7c7.7,0,15.3,0,23,0c2.5,0,2.8-0.3,2.9-2.7c0-0.6,0-1.3,0-1.9&#10;&#9;&#9;c0-12.6,0-25.3,0-37.9c0-1,0-1.9-0.1-2.9c-0.1-1.1-0.7-1.7-1.8-1.7c-1.3,0-2.6-0.1-3.8-0.1c-10.9,0-21.7,0-32.6,0&#10;&#9;&#9;c-3.2,0-6.4,0-9.6,0c-2.5,0-2.8,0.3-2.9,2.7c0,0.5,0,1,0,1.4c0,12.9,0,25.9,0,38.8c0,1,0,1.9,0.2,2.9c0.1,0.7,0.6,1.1,1.3,1.2&#10;&#9;&#9;c1.3,0.1,2.6,0.1,3.8,0.1C1201.9,954.7,1208.5,954.7,1215,954.7z" transform="matrix(0.9999999999999999, 0, 0, 0.9999999999999999, -2.842170943040401e-14, 0)"/><path fill="#88A1A8" d="M873.4,770.2c0-6.4,0-12.8,0-19.2c0-1.3,0-2.6-0.1-3.8c0-0.9-0.6-1.5-1.5-1.6c-0.8-0.1-1.6-0.1-2.4-0.1&#10;&#9;&#9;c-11.3,0-22.7,0-34,0c-0.6,0-1.3,0-1.9,0c-4.4,0.3-7.8,3-9.1,7.3c-0.4,1.4-0.5,2.8-0.5,4.3c0,11.2,0,22.4,0,33.5&#10;&#9;&#9;c0,4.2,0.1,4.3,4.3,4.3c13.6,0,27.2,0,40.7,0c1,0,1.9,0,2.9-0.1c0.9-0.1,1.4-0.7,1.5-1.6c0.1-1.1,0.1-2.2,0.1-3.3&#10;&#9;&#9;C873.5,783.3,873.4,776.7,873.4,770.2z" transform="matrix(0.9999999999999999, 0, 0, 0.9999999999999999, -2.842170943040401e-14, 0)"/><path fill="#88A1A8" d="M1132.7,854.2c-6.7,0-13.4,0-20.1,0c-1.1,0-2.2,0-3.4,0c-1.6,0.1-2,0.5-2.2,1.9c-0.1,0.8,0,1.6,0,2.4&#10;&#9;&#9;c0,12.8,0,25.6,0,38.3c0,4.6-0.2,4.6,4.8,4.6c13.7,0,27.5,0,41.2,0c0.8,0,1.6,0,2.4,0c2-0.1,2.3-0.5,2.4-2.7c0-0.5,0-1,0-1.4&#10;&#9;&#9;c0-12.9,0-25.9,0-38.8c0-0.5,0-1,0-1.4c-0.1-2.6-0.3-2.8-2.7-2.9c-1.1,0-2.2,0-3.4,0C1145.5,854.2,1139.1,854.2,1132.7,854.2z" transform="matrix(0.9999999999999999, 0, 0, 0.9999999999999999, -2.842170943040401e-14, 0)"/><path fill="#88A1A8" d="M1189.6,901.5c6.6,0,13.1,0,19.7,0c1.1,0,2.2,0,3.4,0c1.8-0.1,2.1-0.4,2.2-2.4c0-0.6,0-1.3,0-1.9&#10;&#9;&#9;c0-12.8,0-25.6,0-38.4c0-0.8,0-1.6,0-2.4c-0.1-1.7-0.5-2.1-2.4-2.2c-0.6,0-1.3,0-1.9,0c-14.1,0-28.1,0-42.2,0c-1,0-1.9,0-2.9,0.1&#10;&#9;&#9;c-0.9,0.1-1.4,0.7-1.5,1.6c-0.1,0.6-0.1,1.3-0.1,1.9c0,13.3,0,26.5,0,39.8c0,0.6,0,1.3,0,1.9c0,1.1,0.6,1.8,1.7,1.9&#10;&#9;&#9;c1.1,0.1,2.2,0.1,3.4,0.1C1175.8,901.5,1182.7,901.5,1189.6,901.5z" transform="matrix(0.9999999999999999, 0, 0, 0.9999999999999999, -2.842170943040401e-14, 0)"/><path fill="#88A1A8" d="M1303.3,901.5c6.7,0,13.4,0,20.1,0c1.3,0,2.6-0.1,3.8-0.2c0.7-0.1,1.2-0.5,1.3-1.2c0.1-0.9,0.1-1.9,0.1-2.9&#10;&#9;&#9;c0-12.9,0-25.9,0-38.8c0-4.3-0.1-4.2-4.2-4.2c-14.2,0-28.4,0-42.6,0c-0.8,0-1.6,0-2.4,0.1c-0.9,0.1-1.4,0.6-1.5,1.5&#10;&#9;&#9;c-0.1,1-0.1,1.9-0.1,2.9c0,12.8,0,25.6,0,38.3c0,1,0,1.9,0.1,2.9c0.1,0.9,0.6,1.5,1.5,1.5c1.3,0.1,2.6,0.1,3.8,0.1&#10;&#9;&#9;C1289.9,901.5,1296.6,901.5,1303.3,901.5z" transform="matrix(0.9999999999999999, 0, 0, 0.9999999999999999, -2.842170943040401e-14, 0)"/><path fill="#88A1A8" d="M1360.2,854.2c-6.9,0-13.7,0-20.6,0c-1.1,0-2.2,0-3.4,0.1c-0.9,0.1-1.5,0.6-1.5,1.5c-0.1,1-0.1,1.9-0.1,2.9&#10;&#9;&#9;c0,12.8,0,25.6,0,38.4c0,1,0,1.9,0.1,2.9c0.1,1,0.7,1.4,1.6,1.5c0.8,0.1,1.6,0.1,2.4,0.1c14.4,0,28.8,0,43.2,0&#10;&#9;&#9;c0.8,0,1.6-0.1,2.4-0.2c0.7-0.1,1.2-0.5,1.2-1.2c0.1-1,0.1-1.9,0.1-2.9c0-12.9,0-25.9,0-38.8c0-1,0-1.9-0.2-2.9&#10;&#9;&#9;c-0.1-0.7-0.5-1.2-1.2-1.2c-1.1-0.1-2.2-0.1-3.3-0.1C1374,854.2,1367.1,854.2,1360.2,854.2z" transform="matrix(0.9999999999999999, 0, 0, 0.9999999999999999, -2.842170943040401e-14, 0)"/><path fill="#88A1A8" d="M1076,854.2c-7,0-14.1,0-21.1,0c-1.1,0-2.2,0-3.3,0.1c-0.7,0.1-1.1,0.5-1.2,1.2c-0.1,0.6-0.1,1.3-0.1,1.9&#10;&#9;&#9;c0,13.6,0,27.1,0,40.7c0,3.2,0.1,3.2,3.2,3.3c0.5,0,1,0,1.4,0c13.9,0,27.8,0,41.7,0c1,0,1.9,0,2.9-0.1c0.8-0.1,1.5-0.6,1.6-1.5&#10;&#9;&#9;c0.1-1,0.1-1.9,0.1-2.9c0-12.8,0-25.5,0-38.3c0-1,0-1.9-0.1-2.9c-0.1-0.9-0.6-1.5-1.5-1.5c-1.1-0.1-2.2-0.1-3.3-0.1&#10;&#9;&#9;C1089.4,854.2,1082.7,854.2,1076,854.2z" transform="matrix(0.9999999999999999, 0, 0, 0.9999999999999999, -2.842170943040401e-14, 0)"/><path fill="#88A1A8" d="M962,960.6C962,960.6,962,960.6,962,960.6c-7,0-14.1,0-21.1,0c-1.1,0-2.2,0-3.3,0.1&#10;&#9;&#9;c-0.7,0.1-1.1,0.5-1.2,1.2c-0.1,1-0.1,1.9-0.1,2.9c0,12.9,0,25.9,0,38.8c0,4.1,0,4.2,4.3,4.2c14.1,0,28.1,0,42.2,0&#10;&#9;&#9;c1,0,1.9,0,2.9-0.1c0.9-0.1,1.4-0.6,1.5-1.5c0-1,0.1-1.9,0.1-2.9c0-8.3,0-16.6,0-24.9c0-5.1,0-10.2,0-15.3c0-2.1-0.3-2.4-2.6-2.4&#10;&#9;&#9;C977,960.6,969.5,960.6,962,960.6z" transform="matrix(0.9999999999999999, 0, 0, 0.9999999999999999, -2.842170943040401e-14, 0)"/><path fill="#88A1A8" d="M1329.1,954.7c6.5,0,13.1,0,19.6,0c1.1,0,2.2,0,3.4,0c2.4-0.1,2.6-0.3,2.7-2.9c0-0.5,0-1,0-1.4&#10;&#9;&#9;c0-12.8,0-25.5,0-38.3c0-1,0-1.9-0.1-2.9c-0.1-0.9-0.6-1.5-1.5-1.5c-1-0.1-1.9-0.1-2.9-0.1c-14,0-28.1,0-42.1,0c-1,0-1.9,0-2.9,0.1&#10;&#9;&#9;c-0.9,0.1-1.4,0.7-1.4,1.6c0,0.8-0.1,1.6-0.1,2.4c0,12.9,0,25.9,0,38.8c0,1,0,1.9,0.1,2.9c0.1,0.7,0.5,1.2,1.2,1.3&#10;&#9;&#9;c1.1,0.1,2.2,0.1,3.3,0.1C1315.4,954.7,1322.2,954.7,1329.1,954.7z" transform="matrix(0.9999999999999999, 0, 0, 0.9999999999999999, -2.842170943040401e-14, 0)"/><path fill="#88A1A8" d="M930.8,954.7c6.9,0,13.8,0,20.6,0c1.1,0,2.2,0,3.4-0.1c0.9-0.1,1.4-0.7,1.5-1.6c0.1-0.8,0.1-1.6,0.1-2.4&#10;&#9;&#9;c0-13,0-25.9,0-38.9c0-4.2,0-4.2-4.2-4.2c-14.1,0-28.1,0-42.2,0c-1,0-1.9,0-2.9,0.1c-0.9,0.1-1.4,0.6-1.5,1.6&#10;&#9;&#9;c0,0.8-0.1,1.6-0.1,2.4c0,13,0,25.9,0,38.9c0,1,0,1.9,0.1,2.9c0.1,0.7,0.5,1.2,1.2,1.2c1,0.1,1.9,0.1,2.9,0.1&#10;&#9;&#9;C916.7,954.7,923.7,954.7,930.8,954.7z" transform="matrix(0.9999999999999999, 0, 0, 0.9999999999999999, -2.842170943040401e-14, 0)"/><path fill="#88A1A8" d="M988.2,907.6c-6.5,0-13.1,0-19.6,0c-1.1,0-2.2,0-3.4,0c-2.6,0.1-2.9,0.4-2.9,3.1c0,0.3,0,0.6,0,1&#10;&#9;&#9;c0,12.9,0,25.9,0,38.8c0,4.2,0,4.2,4.2,4.2c14,0,28.1,0,42.1,0c4.6,0,4.6,0.2,4.6-4.8c0-12.5,0-24.9,0-37.4c0-1.1,0-2.2-0.1-3.3&#10;&#9;&#9;c-0.1-0.9-0.6-1.5-1.5-1.5c-1.3-0.1-2.6-0.1-3.8-0.1C1001.3,907.6,994.7,907.6,988.2,907.6z" transform="matrix(0.9999999999999999, 0, 0, 0.9999999999999999, -2.842170943040401e-14, 0)"/><path fill="#88A1A8" d="M1044.5,954.7c6.4,0,12.8,0,19.2,0c1.4,0,2.9,0,4.3,0c1.8-0.1,2.1-0.5,2.2-2.4c0-0.6,0-1.3,0-1.9&#10;&#9;&#9;c0-12.8,0-25.6,0-38.4c0-1,0-1.9-0.1-2.9c-0.1-0.9-0.7-1.4-1.6-1.5c-0.8-0.1-1.6-0.1-2.4-0.1c-14.2,0-28.5,0-42.7,0&#10;&#9;&#9;c-4.1,0-4.1,0.1-4.1,4.3c0,12.8,0,25.6,0,38.4c0,1,0,1.9,0.1,2.9c0.1,0.9,0.6,1.5,1.5,1.5c1,0,1.9,0.1,2.9,0.1&#10;&#9;&#9;C1030.7,954.7,1037.6,954.7,1044.5,954.7z" transform="matrix(0.9999999999999999, 0, 0, 0.9999999999999999, -2.842170943040401e-14, 0)"/><path fill="#88A1A8" d="M1102.2,907.6c-6.6,0-13.1,0-19.7,0c-1.1,0-2.2,0-3.4,0c-2.7,0.1-2.8,0.2-2.9,3.1c0,0.3,0,0.6,0,1&#10;&#9;&#9;c0,13,0,25.9,0,38.9c0,1,0,1.9,0.1,2.9c0.1,0.7,0.5,1.1,1.3,1.2c1,0.1,1.9,0.1,2.9,0.1c14.1,0,28.1,0,42.2,0c1,0,1.9,0,2.9-0.1&#10;&#9;&#9;c0.9-0.1,1.4-0.7,1.4-1.6c0.1-1,0.1-1.9,0.1-2.9c0-12.6,0-25.3,0-37.9c0-1,0-1.9-0.1-2.9c0-1.2-0.8-1.7-1.8-1.7&#10;&#9;&#9;c-1.1-0.1-2.2-0.1-3.4-0.1C1115.3,907.6,1108.7,907.6,1102.2,907.6z" transform="matrix(0.9999999999999999, 0, 0, 0.9999999999999999, -2.842170943040401e-14, 0)"/><path fill="#88A1A8" d="M1075.8,1007.9c6.9,0,13.7,0,20.6,0c1.1,0,2.2,0,3.3-0.2c0.7-0.1,1.2-0.5,1.2-1.2c0.1-0.8,0.1-1.6,0.1-2.4&#10;&#9;&#9;c0-13.3,0-26.5,0-39.8c0-0.8,0-1.6-0.1-2.4c-0.1-0.7-0.6-1.1-1.3-1.2c-0.8-0.1-1.6-0.1-2.4-0.1c-14.5,0-29.1,0-43.6,0&#10;&#9;&#9;c-0.6,0-1.3,0-1.9,0.1c-0.9,0.1-1.4,0.6-1.5,1.5c-0.1,1-0.1,1.9-0.1,2.9c0,12.8,0,25.6,0,38.3c0,1,0,1.9,0.1,2.9&#10;&#9;&#9;c0.1,0.9,0.6,1.4,1.5,1.5c1,0.1,1.9,0.1,2.9,0.1C1061.7,1007.9,1068.7,1007.9,1075.8,1007.9z" transform="matrix(0.9999999999999999, 0, 0, 0.9999999999999999, -2.842170943040401e-14, 0)"/><path fill="#88A1A8" d="M1132.7,960.6c-6.9,0-13.7,0-20.6,0c-1.1,0-2.2,0-3.4,0c-1.2,0-1.7,0.8-1.7,1.9c0,0.8,0,1.6,0,2.4&#10;&#9;&#9;c0,12.9,0,25.9,0,38.8c0,4.1,0,4.1,4.3,4.1c14.1,0,28.1,0,42.2,0c1,0,1.9,0,2.9-0.1c0.9-0.1,1.4-0.7,1.4-1.6c0-0.6,0.1-1.3,0.1-1.9&#10;&#9;&#9;c0-13.3,0-26.5,0-39.8c0-0.6,0-1.3,0-1.9c0-1.1-0.5-1.8-1.7-1.9c-0.8,0-1.6,0-2.4,0C1146.8,960.6,1139.7,960.6,1132.7,960.6z" transform="matrix(0.9999999999999999, 0, 0, 0.9999999999999999, -2.842170943040401e-14, 0)"/><path fill="#88A1A8" d="M1189.6,960.6c-6.9,0-13.7,0-20.6,0c-1.1,0-2.2,0-3.4,0c-1.2,0-1.7,0.7-1.7,1.9c0,0.8,0,1.6,0,2.4&#10;&#9;&#9;c0,12.8,0,25.6,0,38.4c0,1,0,1.9,0.1,2.9c0,0.9,0.6,1.5,1.5,1.6c1.3,0.1,2.6,0.1,3.8,0.1c11.8,0,23.7,0,35.5,0c2.1,0,4.2,0,6.2,0&#10;&#9;&#9;c3.8-0.1,3.9-0.1,3.9-4.1c0-12.9,0-25.9,0-38.8c0-0.8,0-1.6-0.1-2.4c0-1.1-0.5-1.8-1.7-1.8c-1.1,0-2.2,0-3.4,0&#10;&#9;&#9;C1203,960.6,1196.3,960.6,1189.6,960.6z" transform="matrix(0.9999999999999999, 0, 0, 0.9999999999999999, -2.842170943040401e-14, 0)"/><path fill="#88A1A8" d="M1158.6,907.6c-6.7,0-13.4,0-20.1,0c-1.3,0-2.6,0-3.8,0.1c-0.9,0.1-1.5,0.5-1.6,1.5c-0.1,1-0.1,1.9-0.1,2.9&#10;&#9;&#9;c0,12.8,0,25.5,0,38.3c0,1,0,1.9,0.1,2.9c0.1,0.9,0.7,1.4,1.6,1.5c0.8,0.1,1.6,0.1,2.4,0.1c14.4,0,28.7,0,43.1,0&#10;&#9;&#9;c0.8,0,1.6,0,2.4-0.1c0.7-0.1,1.2-0.5,1.2-1.2c0.1-0.8,0.2-1.6,0.2-2.4c0-13.3,0-26.5,0-39.8c0-0.8,0-1.6-0.1-2.4&#10;&#9;&#9;c-0.1-0.7-0.6-1.1-1.3-1.2c-1.3-0.1-2.5-0.1-3.8-0.1C1172,907.6,1165.3,907.6,1158.6,907.6z" transform="matrix(0.9999999999999999, 0, 0, 0.9999999999999999, -2.842170943040401e-14, 0)"/><path fill="#88A1A8" d="M1246.7,960.6c-6.7,0-13.4,0-20.1,0c-1.1,0-2.2,0-3.4,0c-1.8,0.1-2.1,0.4-2.2,2.4c0,0.6,0,1.3,0,1.9&#10;&#9;&#9;c0,12.9,0,25.9,0,38.8c0,0.8,0,1.6,0.1,2.4c0.1,1.2,0.8,1.7,1.9,1.7c0.8,0,1.6,0,2.4,0c14.1,0,28.1,0,42.2,0c1,0,1.9,0,2.9-0.1&#10;&#9;&#9;c0.9-0.1,1.4-0.7,1.5-1.6c0-0.5,0.1-1,0.1-1.4c0-13.7,0-27.5,0-41.2c0-2.7-0.2-2.9-3.1-2.9C1261.3,960.6,1254,960.6,1246.7,960.6z" transform="matrix(0.9999999999999999, 0, 0, 0.9999999999999999, -2.842170943040401e-14, 0)"/><path fill="#88A1A8" d="M1272.1,954.7c6.7,0,13.4,0,20.1,0c1.3,0,2.6,0,3.8-0.1c1.2,0,1.7-0.7,1.7-1.8c0-0.8,0-1.6,0-2.4&#10;&#9;&#9;c0-12.8,0-25.6,0-38.4c0-1,0-1.9-0.1-2.9c-0.1-0.9-0.7-1.4-1.5-1.5c-0.8-0.1-1.6-0.1-2.4-0.1c-14.2,0-28.5,0-42.7,0&#10;&#9;&#9;c-0.8,0-1.6,0-2.4,0.1c-1.2,0.1-1.7,0.8-1.7,1.9c0,0.8,0,1.6,0,2.4c0,12.8,0,25.6,0,38.4c0,1,0,1.9,0.1,2.9&#10;&#9;&#9;c0.1,0.9,0.6,1.5,1.5,1.5c1.1,0.1,2.2,0.1,3.4,0.1C1258.7,954.7,1265.4,954.7,1272.1,954.7z" transform="matrix(0.9999999999999999, 0, 0, 0.9999999999999999, -2.842170943040401e-14, 0)"/><path fill="#88A1A8" d="M1360,1007.9c6.7,0,13.4,0,20.1,0c1.3,0,2.6,0,3.8-0.1c0.9,0,1.5-0.5,1.5-1.5c0.1-1,0.1-1.9,0.1-2.9&#10;&#9;&#9;c0-12.8,0-25.6,0-38.4c0-1,0-1.9-0.1-2.9c-0.1-0.9-0.6-1.4-1.5-1.5c-0.8,0-1.6-0.1-2.4-0.1c-14.2,0-28.5,0-42.7,0&#10;&#9;&#9;c-0.6,0-1.3,0-1.9,0c-2,0.1-2.2,0.3-2.3,2.2c0,0.8,0,1.6,0,2.4c0,12.6,0,25.3,0,37.9c0,1,0,1.9,0,2.9c0,1.2,0.7,1.7,1.8,1.8&#10;&#9;&#9;c1.3,0.1,2.6,0.1,3.8,0.1C1346.9,1007.9,1353.4,1007.9,1360,1007.9z" transform="matrix(0.9999999999999999, 0, 0, 0.9999999999999999, -2.842170943040401e-14, 0)"/><path fill="#88A1A8" d="M1303.6,960.6c-7,0-14.1,0-21.1,0c-1.1,0-2.2,0-3.3,0.1c-0.7,0-1.2,0.5-1.2,1.2c-0.1,1-0.1,1.9-0.1,2.9&#10;&#9;&#9;c0,12.9,0,25.9,0,38.8c0,4.2-0.1,4.2,4.2,4.2c14.1,0,28.1,0,42.2,0c1,0,1.9,0,2.9-0.1c0.9-0.1,1.5-0.6,1.5-1.5&#10;&#9;&#9;c0.1-1,0.1-1.9,0.1-2.9c0-12.8,0-25.6,0-38.3c0-1,0-1.9-0.1-2.9c-0.1-0.9-0.6-1.4-1.5-1.5c-1-0.1-1.9-0.1-2.9-0.1&#10;&#9;&#9;C1317.3,960.6,1310.5,960.6,1303.6,960.6z" transform="matrix(0.9999999999999999, 0, 0, 0.9999999999999999, -2.842170943040401e-14, 0)"/><path fill="#88A1A8" d="M962,854.2c-7,0-14.1,0-21.1,0c-1.1,0-2.2,0.1-3.3,0.1c-0.7,0.1-1.1,0.6-1.2,1.2c-0.1,0.9-0.1,1.9-0.1,2.9&#10;&#9;&#9;c0,12.9,0,25.9,0,38.8c0,4.2,0,4.2,4.3,4.2c14.2,0,28.4,0,42.6,0c0.8,0,1.6,0,2.4-0.1c0.9-0.1,1.4-0.6,1.5-1.5&#10;&#9;&#9;c0.1-1,0.1-1.9,0.1-2.9c0-12.8,0-25.6,0-38.3c0-1,0-1.9-0.1-2.9c-0.1-0.9-0.6-1.4-1.5-1.5c-1-0.1-1.9-0.1-2.9-0.1&#10;&#9;&#9;C975.7,854.2,968.9,854.2,962,854.2z" transform="matrix(0.9999999999999999, 0, 0, 0.9999999999999999, -2.842170943040401e-14, 0)"/><path fill="#88A1A8" d="M905,854.2c-6.9,0-13.7,0-20.6,0c-1.1,0-2.2,0-3.3,0.1c-0.9,0-1.5,0.6-1.5,1.5c-0.1,1-0.1,1.9-0.1,2.9&#10;&#9;&#9;c0,12.8,0,25.6,0,38.3c0,1,0,1.9,0.1,2.9c0,0.9,0.6,1.4,1.5,1.5c0.6,0.1,1.3,0.1,1.9,0.1c14.5,0,29.1,0,43.6,0&#10;&#9;&#9;c3.7,0,3.7-0.1,3.8-3.7c0-0.2,0-0.3,0-0.5c0-12.9,0-25.9,0-38.8c0-1,0-1.9-0.1-2.9c-0.1-0.7-0.5-1.2-1.2-1.2&#10;&#9;&#9;c-1-0.1-1.9-0.1-2.9-0.1C919,854.2,912,854.2,905,854.2z" transform="matrix(0.9999999999999999, 0, 0, 0.9999999999999999, -2.842170943040401e-14, 0)"/><path fill="#88A1A8" d="M1329.2,848.3c6.9,0,13.7,0,20.6,0c1.1,0,2.2,0,3.4-0.1c0.9,0,1.4-0.6,1.5-1.5c0.1-1.1,0.1-2.2,0.1-3.4&#10;&#9;&#9;c0-12.5,0-24.9,0-37.4c0-1,0-1.9,0-2.9c-0.1-1.5-0.5-1.8-2.1-1.9c-0.6,0-1.3,0-1.9,0c-14.2,0-28.5,0-42.7,0c-1,0-1.9,0.1-2.9,0.2&#10;&#9;&#9;c-0.7,0.1-1.1,0.5-1.2,1.2c-0.1,0.8-0.1,1.6-0.1,2.4c0,13.3,0,26.5,0,39.8c0,0.6,0,1.3,0.1,1.9c0.1,1.2,0.8,1.7,1.9,1.7&#10;&#9;&#9;c1.1,0,2.2,0,3.4,0C1315.8,848.3,1322.5,848.3,1329.2,848.3z" transform="matrix(0.9999999999999999, 0, 0, 0.9999999999999999, -2.842170943040401e-14, 0)"/><path fill="#88A1A8" d="M1272.1,801c-6.5,0-13.1,0-19.6,0c-1.3,0-2.6,0-3.8,0.1c-0.9,0-1.5,0.5-1.6,1.5c-0.1,1-0.1,1.9-0.1,2.9&#10;&#9;&#9;c0,12.8,0,25.5,0,38.3c0,1,0,1.9,0.1,2.9c0.1,0.9,0.5,1.5,1.5,1.5c1,0.1,1.9,0.1,2.9,0.1c14,0,28.1,0,42.1,0c1,0,1.9,0,2.9-0.1&#10;&#9;&#9;c0.7-0.1,1.2-0.5,1.3-1.2c0.1-0.8,0.2-1.6,0.2-2.4c0-13.3,0-26.5,0-39.8c0-0.8,0-1.6-0.1-2.4c-0.1-0.7-0.5-1.2-1.2-1.3&#10;&#9;&#9;c-1.1-0.1-2.2-0.2-3.3-0.2C1286.2,801,1279.1,801,1272.1,801z" transform="matrix(0.9999999999999999, 0, 0, 0.9999999999999999, -2.842170943040401e-14, 0)"/><path fill="#88A1A8" d="M1158.3,848.3c7.2,0,14.4,0,21.6,0c4.1,0,4.1,0,4.1-4.3c0-12.9,0-25.9,0-38.8c0-0.6,0-1.3,0-1.9&#10;&#9;&#9;c-0.1-1.6-0.5-2-1.9-2.1c-0.8-0.1-1.6-0.1-2.4-0.1c-14.1,0-28.1,0-42.2,0c-1,0-1.9,0-2.9,0.1c-0.9,0.1-1.4,0.7-1.5,1.6&#10;&#9;&#9;c0,1-0.1,1.9-0.1,2.9c0,12.8,0,25.6,0,38.4c0,0.8,0,1.6,0,2.4c0,1.1,0.5,1.8,1.7,1.9c1.1,0,2.2,0,3.4,0&#10;&#9;&#9;C1144.8,848.3,1151.5,848.3,1158.3,848.3z" transform="matrix(0.9999999999999999, 0, 0, 0.9999999999999999, -2.842170943040401e-14, 0)"/><path fill="#88A1A8" d="M1101.4,848.3c6.5,0,13.1,0,19.6,0c1.1,0,2.2,0,3.4,0c2.3-0.1,2.5-0.3,2.7-2.4c0-0.6,0-1.3,0-1.9&#10;&#9;&#9;c0-12.8,0-25.6,0-38.3c0-4.5,0-4.6-4.4-4.6c-14.1,0-28.1,0-42.2,0c-0.6,0-1.3,0-1.9,0c-1.9,0.1-2.3,0.4-2.4,2.2c0,0.6,0,1.3,0,1.9&#10;&#9;&#9;c0,12.9,0,25.9,0,38.8c0,0.8,0,1.6,0,2.4c0,1.1,0.5,1.8,1.7,1.9c1.1,0,2.2,0,3.4,0C1088,848.3,1094.7,848.3,1101.4,848.3z" transform="matrix(0.9999999999999999, 0, 0, 0.9999999999999999, -2.842170943040401e-14, 0)"/><path fill="#88A1A8" d="M1044.6,848.3C1044.6,848.3,1044.6,848.3,1044.6,848.3c6.7,0,13.4,0,20.1,0c1.3,0,2.6,0,3.8-0.1&#10;&#9;&#9;c0.9,0,1.5-0.5,1.6-1.5c0.1-1,0.1-1.9,0.1-2.9c0-12.8,0-25.5,0-38.3c0-1,0-1.9-0.1-2.9c-0.1-0.9-0.6-1.5-1.5-1.6&#10;&#9;&#9;c-1.3-0.1-2.6-0.1-3.8-0.1c-12.1,0-24.3,0-36.4,0c-2.2,0-4.5,0-6.7,0c-1.9,0.1-2.3,0.4-2.3,2.2c-0.1,4.8,0,9.6-0.1,14.4&#10;&#9;&#9;c0,9.1,0,18.2,0,27.3c0,3.1,0.2,3.3,3.2,3.3C1029.9,848.3,1037.3,848.3,1044.6,848.3z" transform="matrix(0.9999999999999999, 0, 0, 0.9999999999999999, -2.842170943040401e-14, 0)"/><path fill="#88A1A8" d="M987.7,848.3c6.9,0,13.7,0,20.6,0c1.1,0,2.2,0,3.4-0.1c0.9,0,1.4-0.6,1.5-1.5c0.1-1,0.1-1.9,0.1-2.9&#10;&#9;&#9;c0-12.8,0-25.6,0-38.4c0-1,0-1.9-0.1-2.9c-0.1-0.9-0.7-1.4-1.6-1.5c-0.8-0.1-1.6-0.1-2.4-0.1c-14.2,0-28.4,0-42.7,0&#10;&#9;&#9;c-4.2,0-4.2,0.1-4.3,4.2c0,12.9,0,25.9,0,38.8c0,0.8,0,1.6,0.1,2.4c0.1,1.2,0.8,1.7,1.9,1.7c1,0,1.9,0,2.9,0&#10;&#9;&#9;C973.9,848.3,980.8,848.3,987.7,848.3z" transform="matrix(0.9999999999999999, 0, 0, 0.9999999999999999, -2.842170943040401e-14, 0)"/><path fill="#88A1A8" d="M930.6,848.3c6.5,0,13.1,0,19.6,0c1.1,0,2.2,0,3.4,0c2.3-0.1,2.5-0.3,2.6-2.4c0-0.8,0-1.6,0-2.4&#10;&#9;&#9;c0-12.5,0-24.9,0-37.4c0-5.2,0.4-5.1-4.9-5c-13.7,0-27.5,0-41.2,0c-0.6,0-1.3,0-1.9,0c-2.5,0.1-2.8,0.3-2.9,2.7c0,0.5,0,1,0,1.4&#10;&#9;&#9;c0,12.9,0,25.9,0,38.8c0,0.8,0,1.6,0,2.4c0,1.1,0.5,1.8,1.7,1.9c1.1,0,2.2,0,3.4,0C917.2,848.3,923.9,848.3,930.6,848.3z" transform="matrix(0.9999999999999999, 0, 0, 0.9999999999999999, -2.842170943040401e-14, 0)"/><path fill="#88A1A8" d="M1246.7,854.2c-6.9,0-13.7,0-20.6,0c-1.1,0-2.2,0-3.4,0c-1.2,0-1.7,0.7-1.8,1.8c-0.1,0.8-0.1,1.6-0.1,2.4&#10;&#9;&#9;c0,12.9,0,25.9,0,38.8c0,4.2,0.1,4.2,4.2,4.3c14,0,28.1,0,42.1,0c1,0,1.9,0,2.9-0.1c0.9-0.1,1.5-0.6,1.5-1.5c0.1-1,0.1-1.9,0.1-2.9&#10;&#9;&#9;c0-12.8,0-25.5,0-38.3c0-1,0-1.9-0.1-2.9c-0.1-0.9-0.6-1.5-1.5-1.5c-1.1-0.1-2.2-0.1-3.3-0.1&#10;&#9;&#9;C1260.2,854.2,1253.5,854.2,1246.7,854.2z" transform="matrix(0.9999999999999999, 0, 0, 0.9999999999999999, -2.842170943040401e-14, 0)"/><path fill="#88A1A8" d="M848.8,854.2c-6.2,0-12.5,0-18.7,0c-1.1,0-2.2,0-3.4,0c-2.4,0.1-2.6,0.3-2.7,2.9c0,0.5,0,1,0,1.4&#10;&#9;&#9;c0,12.8,0,25.6,0,38.4c0,1,0,1.9,0.1,2.9c0.1,0.9,0.7,1.4,1.5,1.6c0.8,0.1,1.6,0.1,2.4,0.1c13.8,0,27.5,0,41.3,0&#10;&#9;&#9;c4.1,0,4.2-0.1,4.2-4.4c0-12.8,0-25.6,0-38.4c0-1,0-1.9-0.1-2.9c-0.1-0.9-0.6-1.5-1.5-1.5c-1.1-0.1-2.2-0.1-3.4-0.1&#10;&#9;&#9;C861.9,854.2,855.3,854.2,848.8,854.2z" transform="matrix(0.9999999999999999, 0, 0, 0.9999999999999999, -2.842170943040401e-14, 0)"/><path fill="#88A1A8" d="M1470.9,794.9c6.7,0,13.4,0,20.1,0c3.1,0,3.2-0.3,3.4-3.3c0-0.5,0-1,0-1.4c0-10.9,0-21.7,0-32.6&#10;&#9;&#9;c0-1.3,0-2.6-0.3-3.8c-0.6-3.6-2.7-6-6-7.5c-1.7-0.8-3.4-0.8-5.2-0.8c-10.1,0-20.1,0-30.2,0c-1,0-1.9,0-2.9,0.1&#10;&#9;&#9;c-0.7,0.1-1.1,0.6-1.2,1.3c-0.1,1.3-0.1,2.5-0.1,3.8c0,10.7,0,21.4,0,32.1c0,2.9,0,5.7,0,8.6c0.1,3.3,0.1,3.4,3.6,3.4&#10;&#9;&#9;C1458.4,794.9,1464.7,794.9,1470.9,794.9z" transform="matrix(0.9999999999999999, 0, 0, 0.9999999999999999, -2.842170943040401e-14, 0)"/><path fill="#151D38" d="M1159.3,1088.7c35,0,70,0,105.1,0c1.6,0,3.2-0.1,4.8,0c8.9,0.7,15.3,7.4,15.6,16.4c0,1.1,0,2.2,0,3.4&#10;&#9;&#9;c0,34.5,0,69.1,0,103.6c0,1.3,0,2.6,0,3.8c-0.3,7.9-5.9,14.3-13.7,15.6c-1.7,0.3-3.5,0.4-5.2,0.4c-71,0-142,0-213,0&#10;&#9;&#9;c-1.4,0-2.9,0-4.3-0.1c-8.3-1-14.3-7.2-14.9-15.6c-0.1-1.1,0-2.2,0-3.4c0-35,0-70,0-105.1c0-1.1,0-2.2,0-3.4&#10;&#9;&#9;c0.6-8.5,6.8-14.9,15.4-15.7c1.6-0.1,3.2-0.1,4.8-0.1C1089,1088.7,1124.1,1088.7,1159.3,1088.7z" transform="matrix(0.9999999999999999, 0, 0, 0.9999999999999999, -2.842170943040401e-14, 0)"/><path fill="#88A1A8" d="M1158.8,1225.8c35.2,0,70.4,0,105.6,0c1.4,0,2.9-0.1,4.3,0c4.3,0.1,9.6-3.8,10-9.8c0.1-1.3,0.1-2.6,0.1-3.8&#10;&#9;&#9;c0-34.6,0-69.1,0-103.7c0-1.3,0-2.6,0-3.8c-0.4-5.5-5.3-9.9-10-9.8c-1.3,0-2.6,0-3.8,0c-70.4,0-140.8,0-211.2,0c-1,0-1.9,0.1-2.9,0&#10;&#9;&#9;c-6.8-0.5-11.8,5.7-11.2,11c0.1,1,0,1.9,0,2.9c0,34.4,0,68.8,0,103.2c0,1.3,0,2.6,0,3.8c0.3,5.5,4.3,9.6,9.8,10&#10;&#9;&#9;c1.6,0.1,3.2,0.1,4.8,0.1C1089.1,1225.8,1124,1225.8,1158.8,1225.8z" transform="matrix(0.9999999999999999, 0, 0, 0.9999999999999999, -2.842170943040401e-14, 0)"/><path fill="#151D38" d="M1158.8,204c105.4,0,210.9,0,316.3,0c1.8,0,3.5-0.1,5.3,0c7.5,0.4,13.2,6.1,13.5,13.6c0.1,1.3,0,2.6,0,3.8&#10;&#9;&#9;c0,142.9,0,285.7,0,428.6c0,1.4,0.1,2.9,0,4.3c-0.4,7.2-6.1,12.9-13.3,13.4c-1.8,0.1-3.5,0-5.3,0c-122.7,0-245.4,0-368.1,0&#10;&#9;&#9;c-88.2,0-176.3,0-264.5,0c-1.4,0-2.9,0-4.3,0c-6.5,0.2-13.9-5.5-14-13.6c0-1.3,0-2.6,0-3.8c0-142.9,0-285.7,0-428.6&#10;&#9;&#9;c0-1.3,0-2.6,0-3.8c-0.1-8.2,7.4-14,13.7-13.9c1.6,0,3.2,0,4.8,0C948.3,204,1053.6,204,1158.8,204z" transform="matrix(0.9999999999999999, 0, 0, 0.9999999999999999, -2.842170943040401e-14, 0)"/><path fill="#DBC4AF" d="M1245.1,353.7l0.2,0.2c-0.6-1.1-1.8-1.3-2.7-1.8c-19.2-9.6-35.4-22.9-48.5-39.9c-0.5-0.6-1-1.3-1.5-1.8&#10;&#9;&#9;c-0.4-0.4-0.9-0.4-1.3-0.1c-0.9,0.6-1.8,1.3-2.8,1.9c-22.5,15.9-47.5,24.6-75.1,25.7c-20.4,0.8-40.1-2.6-59-10.5&#10;&#9;&#9;c-1-0.4-2.1-0.9-3.1-1.2c-0.6-0.2-1.3-0.1-1.7,0.5c-0.8,1-1.6,2-2.3,3.1c-7.2,10.5-12.8,21.8-16.8,33.8c-1,2.9-1.4,5.8-1.4,8.9&#10;&#9;&#9;c0.1,20.5,0,41,0,61.4c0,1.9,0,3.9-0.4,5.7c-0.4,2.1-0.2,4.1,0.3,6.1c4.5,19.2,12.3,36.9,23.2,53.4c6.2,9.4,13.1,18.1,20.2,26.8&#10;&#9;&#9;c5,6.2,10,12.5,14.9,18.8c3.4,4.4,6.4,9.2,8.9,14.2c3.5,6.9,5.9,14.2,6.1,22c0.1,2.8,1.1,4.8,3,6.7c7,6.9,15.1,11.8,24.3,14.9&#10;&#9;&#9;c15.2,5.2,30.7,5.8,46.4,2.3c11.9-2.6,22.6-7.8,32-15.7c2.1-1.8,3.1-3.7,3.2-6.5c0.3-9.6,3.2-18.5,8-26.9c2.6-4.6,5.6-9,8.8-13.1&#10;&#9;&#9;c5-6.3,10-12.5,15.1-18.7c7.6-9.3,14.9-18.8,21.2-29c8.5-13.8,14.9-28.6,19.2-44.3c0.4-1.6,0.2-2.7-1.1-3.7&#10;&#9;&#9;c-3.5-2.8-4.9-6.6-4.8-11c0-1,0-1.9,0-2.9c0-19,0-38.1,0-57.1c0-3.5-0.3-7.1,1-10.4c0.3-0.8-0.2-1.2-0.8-1.5&#10;&#9;&#9;c-0.6-0.3-1.2-0.3-1.8-0.5c-9.3-1.9-18.2-4.8-26.9-8.6C1247.5,354.4,1246.3,354.1,1245.1,353.7z" transform="matrix(0.9999999999999999, 0, 0, 0.9999999999999999, -2.842170943040401e-14, 0)"/><path fill="#BAC9CE" d="M1159.4,209.9c-105.3,0-210.6,0-315.8,0c-1.6,0-3.2-0.1-4.8,0c-4.8,0.3-8,3.5-8.3,8.3c-0.1,1.3,0,2.6,0,3.8&#10;&#9;&#9;c0,142.6,0,285.1,0,427.7c0,1.3,0,2.6,0,3.8c0.2,4.5,3.3,7.8,7.8,8.3c1.4,0.2,2.9,0.1,4.3,0.1c60.5,0,121,0,181.4,0&#10;&#9;&#9;c1.3,0,2.6,0,3.8,0c1.5-0.1,2-0.5,2.1-2c0.3-2.7,0.4-5.4,0.8-8.1c0.3-1.6,0.1-2.8-1.4-3.7c-0.5-0.3-1-0.8-1.5-1.2&#10;&#9;&#9;c-10-8-17.8-17.9-23.5-29.3c-8.2-16.3-12.2-33.6-12.3-51.8c-0.1-8.2,0-16.3,0-24.5c0-21.1,0-42.2,0-63.4c0-2.4,0.3-4.8-2.6-6.1&#10;&#9;&#9;c-1.3-0.6-1.9-2.1-2.5-3.4c-1.3-3-1-6,0.6-8.7c0.7-1.2,1.1-2.2,0.2-3.5c-1.5-2-1.7-4.4-1.6-6.9c0.1-1.9-0.1-3.8,0-5.8&#10;&#9;&#9;c0.1-1.8-0.5-3-2.1-3.9c-3.6-2.1-6-5.2-7.4-9.1c-0.9-2.4-1.1-5-1.1-7.6c0-13,0-25.9,0-38.9c0-0.8,0-1.6,0-2.4&#10;&#9;&#9;c0.5-8.1,5.9-14.5,13.8-16.4c4.8-1.1,3.7-0.6,4.8-4.7c0.2-0.6,0.3-1.2,0.5-1.9c17.7-71.8,80.3-124.4,153.3-128&#10;&#9;&#9;c16.4-0.8,32.6,0.6,48.5,4.5c51,12.6,93.4,49,114,97.5c4.3,10,7.6,20.4,9.8,31c0.5,2.3,1.3,4,3.3,5.5c4.8,3.6,7,8.6,7,14.6&#10;&#9;&#9;c0,13.6,0,27.2,0,40.8c0,0.8,0,1.6-0.1,2.4c-0.9,6.5-4.2,11.3-10.1,14.2c-2.5,1.2-5.1,1.8-7.9,1.8c-3,0-6.1,0-9.1,0&#10;&#9;&#9;c-1.5,0-2.7,0.3-3.7,1.7c-1.9,2.5-4.5,4-7.6,4.6c-0.5,0.1-0.9,0.2-1.4,0.3c-0.7,0.2-1.1,0.6-1.3,1.2c-0.2,0.8-0.5,1.5-0.7,2.3&#10;&#9;&#9;c-5.8,21.4-15.7,40.8-28.8,58.6c-6.8,9.3-14.3,18.1-21.5,27c-4.4,5.5-8.7,11-12.5,17c-5.4,8.6-8.7,17.7-8.9,28&#10;&#9;&#9;c-0.2,11.3,3.8,20.3,13.9,26c2.8,1.6,5.7,2.9,8.6,4.1c4.1,1.7,8.4,3.2,12.5,4.8c4.6,1.8,9.1,3.9,13.3,6.5&#10;&#9;&#9;c8.8,5.6,14.2,13.6,16.5,23.8c0.7,3.3,1,6.6,1.2,10c0.2,2.4,0.5,2.7,3,2.7c6.9,0,13.8,0,20.6,0c2.7,0,3.4,0,4.1-3.4&#10;&#9;&#9;c0.2-0.8,0.4-1.5,0.6-2.3c11.2-40.9,22.3-81.7,33.5-122.6c0.3-1.2,0.7-2.5,1.1-3.7c0.4-0.9,1.2-1.5,2.3-1.5c0.8,0,1.6,0.1,2.4,0.2&#10;&#9;&#9;c2.4,0.2,2.7-0.1,2.8-2.6c0.1-8.3-2.6-15.4-9-20.8c-1.2-1-2.5-2-3.7-3.1c-9.9-9.4-13.4-20.9-10.2-34.1c2.9-11.9,10.7-19.7,22.1-24&#10;&#9;&#9;c1.5-0.6,3.1-0.9,4.6-1.4c0.9-0.3,1.2-1,1.1-1.9c-0.1-0.6-0.3-1.2-0.4-1.9c-3.5-15.4-7-30.9-10.5-46.3c-0.3-1.4-0.6-2.8-0.8-4.2&#10;&#9;&#9;c-0.7-7.2,3.7-13.2,10.8-14.8c6.6-1.5,13.3,2.3,15.6,8.8c0.4,1,0.6,2.1,0.9,3.2c2.9,12.5,5.7,24.9,8.5,37.4&#10;&#9;&#9;c0.4,1.6,0.7,3.1,1.2,4.6c0.1,0.2,0.5,0.4,0.7,0.4c0.2-0.1,0.5-0.3,0.6-0.6c0.1-0.3,0.2-0.6,0.2-0.9c1.3-10.5,2.7-20.9,4-31.4&#10;&#9;&#9;c0.6-4.6,1.1-9.2,1.9-13.8c1.3-7,7.6-11.7,14.7-11c7,0.7,12.3,6.4,12.4,13.6c0,1.3-0.1,2.6-0.2,3.8c-1.1,8.6-2.2,17.1-3.3,25.7&#10;&#9;&#9;c-0.7,5.7-1.5,11.4-2.2,17.1c-0.1,1.2-0.7,2.6,0.2,3.7c0.8,0.9,2.1,0.4,3.2,0.5c7.7,1,12.6,6.4,12.8,14.3c0,0.5,0,1-0.1,1.4&#10;&#9;&#9;c-0.1,0.9,0.2,1.6,0.9,2.1c0.5,0.4,1.1,0.7,1.6,1.1c6,4.9,7.3,12.5,2.9,18.8c-1.9,2.8-3.9,5.5-6.2,7.9c-1.6,1.6-2.3,3.3-2.8,5.4&#10;&#9;&#9;c-0.9,3.4-1.7,6.8-2.8,10.2c-5.5,17.1-15.1,31.3-30,41.7c-0.4,0.3-0.8,0.6-1.1,0.9c-0.5,0.5-0.2,1,0.2,1.1c0.7,0.4,1.5,0.5,2.2,0.8&#10;&#9;&#9;c2,0.9,2.6,2.1,2.1,4.2c-0.2,1.1-0.5,2.2-0.8,3.2c-10,36.4-19.9,72.8-29.9,109.2c-1.4,5.3-1.6,5,3.7,5c36.2,0,72.3,0,108.5,0&#10;&#9;&#9;c1.1,0,2.3,0.1,3.4-0.1c4.3-0.5,7.3-3.7,7.7-7.9c0.1-1.1,0-2.2,0-3.4c0-143,0-286.1,0-429.1c0-1,0-1.9,0-2.9&#10;&#9;&#9;c-0.3-5-3.5-8.3-8.5-8.6c-1.4-0.1-2.9,0-4.3,0C1370,209.9,1264.7,209.9,1159.4,209.9z" transform="matrix(0.9999999999999999, 0, 0, 0.9999999999999999, -2.842170943040401e-14, 0)"/><path fill="#BAC9CE" d="M998,526c0,13,0.1,25.9,0,38.9c-0.1,10.8,1.5,21.4,4.5,31.7c4.3,14.7,11.2,27.8,21.9,38.9&#10;&#9;&#9;c2.3,2.4,4.8,4.7,7.5,6.7c0.6,0.5,1.2,0.3,1.6-0.3c0.3-0.6,0.6-1.1,0.9-1.7c3.3-6.7,8.3-11.7,14.6-15.5c3.3-2,6.8-3.6,10.3-5&#10;&#9;&#9;c4.9-1.9,9.8-3.8,14.7-5.7c3.9-1.5,7.6-3.3,11-5.8c5.9-4.2,9.3-9.9,10.6-17.1c1.5-8.4,0.4-16.6-2.7-24.5c-1.9-4.9-4.6-9.5-7.5-13.9&#10;&#9;&#9;c-3.9-5.9-8.4-11.3-12.8-16.8c-5.3-6.6-10.7-13.1-15.9-19.8c-13-16.8-23.4-35.1-29.9-55.5c-1.2-3.7-2.1-7.4-3.2-11&#10;&#9;&#9;c-0.4-1.4-0.6-1.6-2-1.1c-5.3,2-10,1.1-14.2-2.8c-0.1-0.1-0.2-0.2-0.3-0.3c-0.6-0.4-1.4-0.1-1.4,0.5c-0.1,1.4,0,2.9-0.1,4.3&#10;&#9;&#9;c-0.1,1.6,0,3.3-1,4.6c-1.4,2-1.2,3.7,0.1,5.6c0.4,0.6,0.6,1.5,0.7,2.3c0.6,4.4-0.8,8-4.8,10.1c-2.2,1.1-2.6,2.5-2.5,4.6&#10;&#9;&#9;c0.1,1.1,0,2.2,0,3.4C998,495.9,998,511,998,526z" transform="matrix(0.9999999999999999, 0, 0, 0.9999999999999999, -2.842170943040401e-14, 0)"/><path fill="#7DA6ED" d="M1180.5,661.9c30.1,0,60.1,0,90.2,0c1.3,0,2.6,0,3.8,0c2.2-0.1,2.5-0.4,2.5-2.5c0-3.5-0.6-7-1.5-10.4&#10;&#9;&#9;c-2-7.8-6.4-13.9-13.1-18.2c-3.2-2.1-6.6-3.8-10.2-5.3c-4-1.6-8-3.1-12.1-4.6c-7.8-3-15.3-6.4-21.2-12.7c-0.7-0.7-1.4-0.6-2.1,0&#10;&#9;&#9;c-0.5,0.4-1,0.8-1.5,1.2c-15.9,11.9-33.8,18.5-53.7,19.4c-14.4,0.7-28.4-1.4-41.8-6.9c-8.2-3.4-15.7-7.8-22.5-13.5&#10;&#9;&#9;c-1.8-1.5-2-1.5-3.5,0.1c-4,4.2-8.9,7.3-14.2,9.6c-3.1,1.3-6.2,2.5-9.3,3.8c-4.6,1.9-9.2,3.7-13.7,5.6c-3.4,1.5-6.5,3.4-9.3,5.8&#10;&#9;&#9;c-3.6,3-6.3,6.8-8.2,11.1c-0.9,2.1-0.7,2.7,1.4,3.9c2.6,1.5,5.3,3,8.1,4.2c13.9,6.4,28.6,9.2,43.7,9.3&#10;&#9;&#9;C1121.6,662.1,1151,661.9,1180.5,661.9z" transform="matrix(0.9999999999999999, 0, 0, 0.9999999999999999, -2.842170943040401e-14, 0)" style="fill: rgb(186, 185, 171);"/><path fill="#DBC4AF" d="M1375.2,463.4c0,0.1,0,0.1,0,0.2c2.1,0.1,4.1,0.3,6.2,0.4c1.1,0,2.3,0,3.3-0.2c3.9-0.9,6.6-4.3,6.3-7.9&#10;&#9;&#9;c-0.4-3.8-3.3-6.7-7.3-6.9c-6.2-0.4-12.5-0.6-18.7-0.9c-2.9-0.2-5.8,0.3-8.5,1.2c-10.7,3.5-17.9,10.4-20.3,21.6&#10;&#9;&#9;c-2.4,11,1.2,20.1,9.4,27.6c0.7,0.6,1.5,1.2,2.2,1.8c5.9,4.8,9.6,11,11.1,18.5c0.7,3.5,0.6,7,0.5,10.5c0,1.3,0.5,2,1.8,2.4&#10;&#9;&#9;c5.2,1.4,10.5,2.7,15.7,4.4c3.2,1,5.7,0.5,8.5-1.3c18.2-11.3,28.2-28.2,33.2-48.6c0.2-1-0.2-1.5-1.2-1.6c-4.5-0.5-8.3-2.4-10.8-6.2&#10;&#9;&#9;c-0.9-1.3-2-1.3-3.3-1.4c-4.8-0.1-8.5-2.4-11.2-6.3c-0.3-0.4-0.5-0.8-0.8-1.2c-0.5-0.8-1.1-1.1-2-0.7c-2.2,1-4.5,1.6-7,1.4&#10;&#9;&#9;c-4.9-0.3-9.9-0.5-14.8-0.8c-0.5,0-1-0.1-1.4-0.2c-1.2-0.3-2-1.6-1.9-3c0.1-1.5,1.1-2.6,2.8-2.7&#10;&#9;&#9;C1369.8,463.3,1372.5,463.4,1375.2,463.4z" transform="matrix(0.9999999999999999, 0, 0, 0.9999999999999999, -2.842170943040401e-14, 0)"/><path fill="#BAC9CE" d="M1295.5,359.4c1,0.3,1.5-0.2,1.3-1.2c-0.2-0.6-0.4-1.2-0.6-1.8c-4.1-12.7-9.6-24.7-16.7-36&#10;&#9;&#9;c-16.7-26.7-39.3-46.6-68.7-58.1c-24.3-9.6-49.5-12-75.4-8.4c-17.3,2.4-33.6,7.7-48.8,16.2c-21.9,12.2-39,29.2-52.2,50.4&#10;&#9;&#9;c-6.8,10.9-12.1,22.5-16.2,34.7c-0.8,2.4-0.6,2.6,1.7,3.5c1,0.4,2.1,0.8,3.1,1.3c1.9,0.8,2,0.8,2.7-1.1c0.4-0.9,0.7-1.8,1-2.7&#10;&#9;&#9;c23.5-62.2,88.3-101.2,157.7-87.4c48,9.5,84.5,42.8,101.2,84.2c0.5,1.2,0.9,2.4,1.4,3.6c0.4,0.9,1,1.6,2.1,1.6&#10;&#9;&#9;C1291.2,358.1,1293.4,358.5,1295.5,359.4z" transform="matrix(0.9999999999999999, 0, 0, 0.9999999999999999, -2.842170943040401e-14, 0)"/><path fill="#7DA6ED" d="M1336.5,661.9C1336.5,661.9,1336.5,661.9,1336.5,661.9c5.3,0,10.5,0,15.8,0c5.7,0,4.7,0.3,6.1-4.6&#10;&#9;&#9;c8-29.1,16-58.2,23.9-87.3c0.4-1.4,0.7-2.8,1.1-4.2c0.2-0.9-0.2-1.5-1.1-1.8c-0.9-0.3-1.8-0.6-2.7-0.9c-9.8-2.8-19.6-5.8-29.4-8.5&#10;&#9;&#9;c-4.2-1.2-4-2.2-5.4,2.9c-7.2,26.5-14.5,53-21.7,79.5c-2,7.4-4,14.8-6,22.2c-0.6,2.3-0.4,2.6,1.8,2.6&#10;&#9;&#9;C1324.7,661.9,1330.6,661.9,1336.5,661.9z" transform="matrix(0.9999999999999999, 0, 0, 0.9999999999999999, -2.842170943040401e-14, 0)" style="fill: rgb(235, 237, 211);"/><path fill="#00C2A2" d="M1156.8,236.5c-15.3-0.2-30.7,1.9-45.6,6.6c-46.9,14.8-80.4,44.8-101.1,89.2c-4.5,9.7-7.8,19.9-10.2,30.4&#10;&#9;&#9;c-0.3,1.3,0.1,1.8,1.4,1.9c2.3,0.2,4.5,0.1,5.8-2.3c0.3-0.5,0.8-1,1.4-1.3c1.8-1.1,2.4-2.9,3-4.7c3-9.5,6.7-18.6,11.3-27.5&#10;&#9;&#9;c10.3-20,24-37.3,41.8-51.3c22.3-17.5,47.7-27.5,75.9-30.4c15.5-1.6,31-1,46.3,1.9c33.4,6.4,61.2,22.6,83.4,48.3&#10;&#9;&#9;c15.6,18,26.3,38.8,33.3,61.6c0.7,2.2,0.4,5.3,2.8,6.2c2.1,0.8,4.7,0.2,7.1,0.2c0.8,0,1.1-0.6,0.9-1.3c-0.1-0.8-0.3-1.6-0.5-2.3&#10;&#9;&#9;c-3.3-14.4-8.7-28.1-15.8-41C1269,268,1214.4,236.1,1156.8,236.5z" transform="matrix(0.9999999999999999, 0, 0, 0.9999999999999999, -2.842170943040401e-14, 0)" style="fill: rgb(194, 194, 194);"/><path fill="#00C2A2" d="M1302.4,404.2c0,9.1,0,18.2,0,27.3c0,1.3,0,2.6,0.1,3.8c0.1,0.9,0.5,1.6,1.4,1.6c4,0.1,8,0.6,11.9-0.4&#10;&#9;&#9;c4.2-1.1,6.9-3.9,8.2-8c0.5-1.7,0.7-3.4,0.7-5.2c0-12.8,0-25.5,0-38.3c0-0.8,0-1.6-0.1-2.4c-0.8-6.7-5.3-11-12.1-11.3&#10;&#9;&#9;c-2.2-0.1-4.5-0.1-6.7,0c-3.1,0-3.2,0.2-3.4,3.2c0,1.1,0,2.2,0,3.4C1302.4,386.6,1302.4,395.4,1302.4,404.2z" transform="matrix(0.9999999999999999, 0, 0, 0.9999999999999999, -2.842170943040401e-14, 0)" style="fill: rgb(245, 245, 245);"/><path fill="#00C2A2" d="M1003.8,404c0-7.8,0.1-15.7,0-23.5c-0.2-11.9,2-9.4-10.3-9.7c-0.5,0-1,0-1.4,0.1c-4.8,0.6-8.7,3.9-9.9,8.5&#10;&#9;&#9;c-0.4,1.4-0.6,2.8-0.6,4.3c0,13.1,0,26.2,0,39.4c0,0.8,0,1.6,0.1,2.4c0.8,6.2,5.2,10.5,11.5,10.9c2.9,0.2,5.8,0.1,8.6,0&#10;&#9;&#9;c1.5,0,1.9-0.5,2-2.1c0.1-1.3,0.1-2.6,0.1-3.8C1003.8,421.6,1003.8,412.8,1003.8,404z" transform="matrix(1, 0, 0, 1, 2.2579274412105406, 0)" style="fill: rgb(245, 245, 245);"/><path fill="#AEDEF8" d="M1151.3,622.9c24.7,0,42.2-5.6,58-16.6c1.8-1.3,3.8-2.3,5-4.3c-0.6-1.8-1.2-3.6-1.8-5.4&#10;&#9;&#9;c-0.1-0.3-0.2-0.6-0.3-0.9c-0.5-1.3-1-1.4-2.1-0.6c-6.5,5.3-13.7,9.4-21.5,12.3c-17.3,6.4-34.9,7.3-52.8,3.3&#10;&#9;&#9;c-10.6-2.4-20.2-6.8-28.9-13.4c-1.7-1.3-2.9-3.4-5.3-3.7c-0.7,2.1-1.5,4.2-2.2,6.3c-0.5,1.2-0.1,2.1,0.8,3c3,2.7,6.2,5.1,9.6,7.1&#10;&#9;&#9;C1124.1,618.8,1139.8,622.9,1151.3,622.9z" transform="matrix(0.9999999999999999, 0, 0, 0.9999999999999999, -2.842170943040401e-14, 0)" style="fill: rgb(237, 247, 233);"/><path fill="#DBC4AF" d="M1389.3,441.8c-0.2,1.3,0,2.3,1.2,3c1.8,1.1,3.2,2.6,4.5,4.3c0.8,1,1.4,1,2.3-0.2c2.2-2.8,4.2-5.7,6.4-8.4&#10;&#9;&#9;c1.3-1.5,1.9-3.2,2.1-5.2c1.4-11.4,2.9-22.8,4.4-34.2c0.7-5.4,1.5-10.8,2-16.2c0.4-4.6-2.8-8.3-7.1-8.6c-3.8-0.3-7.3,2.5-8.1,6.7&#10;&#9;&#9;c-0.4,2.2-0.6,4.4-0.9,6.7c-1.5,11.6-3,23.1-4.5,34.7C1390.8,430.2,1390.1,436,1389.3,441.8z" transform="matrix(0.9999999999999999, 0, 0, 0.9999999999999999, -2.842170943040401e-14, 0)"/><path fill="#DBC4AF" d="M1373.1,442.2c0,0.1,0,0.2,0,0.2c1.9,0,3.8,0,5.8,0c1.2,0,1.7-0.6,1.5-1.8c0-0.3-0.1-0.6-0.2-0.9&#10;&#9;&#9;c-4-17.8-8.1-35.5-12.1-53.3c-0.2-1.1-0.6-2.2-1.1-3.1c-1.7-3.1-5.2-4.6-8.6-3.7c-3.4,0.9-5.8,3.8-5.7,7.3c0,1.3,0.3,2.5,0.6,3.8&#10;&#9;&#9;c3.4,15.3,6.8,30.6,10.4,45.8c1.4,6.1,0,5.4,7.1,5.7C1371.5,442.3,1372.3,442.2,1373.1,442.2z" transform="matrix(0.9999999999999999, 0, 0, 0.9999999999999999, -2.842170943040401e-14, 0)"/><path fill="#7FEFE9" d="M1022.8,403.7c0-10.1,0-20.1,0-30.2c0-1.3,0-2.6-0.1-3.8c-0.4-3.3-3-5.4-6.2-5.5c-3.2,0-5.9,2.1-6.4,5.2&#10;&#9;&#9;c-0.2,1.1-0.2,2.2-0.2,3.3c0,20.8,0,41.5,0,62.3c0,1.1,0,2.3,0.2,3.3c0.6,3.1,3.4,5.2,6.6,5c3-0.1,5.5-2.3,6-5.3&#10;&#9;&#9;c0.2-1.4,0.2-2.9,0.2-4.3C1022.8,423.9,1022.8,413.8,1022.8,403.7z" transform="matrix(0.9999999999999999, 0, 0, 0.9999999999999999, -2.842170943040401e-14, 0)" style="fill: rgb(187, 186, 183);"/><path fill="#7FEFE9" d="M 1296.3 404.1 C 1296.3 404.1 1296.3 383.70000000000005 1296.3 373.40000000000003 C 1296.3 372.00000000000006 1296.3 370.50000000000006 1296.1 369.1 C 1295.5 366 1292.6999999999998 364 1289.3999999999999 364.20000000000005 C 1286.3999999999999 364.40000000000003 1283.9999999999998 366.50000000000006 1283.4999999999998 369.50000000000006 C 1283.2999999999997 370.80000000000007 1283.3999999999999 372.00000000000006 1283.3999999999999 373.30000000000007 C 1283.3999999999999 393.6000000000001 1283.3999999999999 413.80000000000007 1283.3999999999999 434.1000000000001 C 1283.3999999999999 435.2000000000001 1283.3999999999999 436.30000000000007 1283.4999999999998 437.4000000000001 C 1283.7999999999997 440.9000000000001 1286.4999999999998 443.30000000000007 1289.7999999999997 443.30000000000007 C 1293.1999999999998 443.30000000000007 1295.7999999999997 441.00000000000006 1296.1999999999998 437.50000000000006 C 1296.3999999999999 436.20000000000005 1296.2999999999997 435.00000000000006 1296.2999999999997 433.70000000000005 C 1296.3 423.9 1296.3 404.1 1296.3 404.1 Z" transform="matrix(0.9999999999999999, 0, 0, 0.9999999999999999, -2.842170943040401e-14, 0)" style="fill: rgb(191, 194, 188);"/><path fill="#AEDEF8" d="M1388.6,546.3c0-0.6-0.3-1-0.7-1.1c-1.2-0.4-2.4-0.8-3.7-1.1c-7.8-2.2-15.6-4.4-23.5-6.4&#10;&#9;&#9;c-3.2-0.8-6.2-2.4-9.6-2c-1.8,3.1-2,6.7-3.1,10c0,0.1-0.1,0.3-0.1,0.5c-0.1,0.9,0.1,1.6,1,1.9c0.9,0.3,1.8,0.6,2.7,0.9&#10;&#9;&#9;c9.8,2.8,19.6,5.7,29.3,8.5c0.9,0.3,1.8,0.5,2.8,0.8c1.1,0.3,1.8-0.1,2.2-1.2c0.9-3.2,1.8-6.4,2.6-9.7&#10;&#9;&#9;C1388.6,546.9,1388.6,546.6,1388.6,546.3z" transform="matrix(0.9999999999999999, 0, 0, 0.9999999999999999, -2.842170943040401e-14, 0)"/><path fill="#DBC4AF" d="M1422.5,448.4c-0.1-3.4-2.4-6.4-5.5-7.3c-3.5-1-6.3,0.1-8.5,2.9c-3.6,4.7-7.1,9.4-10.6,14.1&#10;&#9;&#9;c-0.5,0.6-0.9,1.3-1.2,2.1c-0.9,2-0.9,4,0,6c2.5,5.6,9.3,6.4,13.3,1.5c3.8-4.7,7.3-9.7,10.9-14.5&#10;&#9;&#9;C1421.9,451.7,1422.4,450,1422.5,448.4z" transform="matrix(0.9999999999999999, 0, 0, 0.9999999999999999, -2.842170943040401e-14, 0)"/><path fill="#DBC4AF" d="M1430.4,464.6c0-2.2-0.9-4-2.4-5.5c-1.7-1.8-2.6-1.7-4.2,0.2c-3.8,4.9-7.1,10.1-11.4,14.7&#10;&#9;&#9;c-0.7,0.7-0.4,1.5,0.2,2.1c3.2,3.2,7.9,3.2,11-0.2c2-2.2,3.7-4.7,5.5-7.2C1430,467.4,1430.5,466,1430.4,464.6z" transform="matrix(0.9999999999999999, 0, 0, 0.9999999999999999, -2.842170943040401e-14, 0)"/><path fill="#00C2A2" d="M999.5,447.4c0.1-5,0.1-5-3.2-5.1c-4.1-0.1-4.1-0.1-4.1,4.2c0,1.6-0.1,3.2,0.1,4.8c0.2,1.8,2,3.2,3.6,3.2&#10;&#9;&#9;c1.7,0,3.3-1.4,3.5-3.3C999.6,450,999.5,448.7,999.5,447.4z" transform="matrix(0.9999999999999999, 0, 0, 0.9999999999999999, -2.842170943040401e-14, 0)"/><path fill="#7DA6ED" d="M1045,661.9C1045,661.9,1045,661.9,1045,661.9c2.2,0,4.5,0,6.7,0c0.4,0,1.1,0.1,0.9-0.6&#10;&#9;&#9;c0-0.2-0.4-0.5-0.7-0.6c-3.9-1.8-7.8-3.6-11.7-5.5c-3.7-1.9-4-1.8-4.2,2.6c0,0.8,0,1.6,0,2.4c0,1.1,0.6,1.8,1.8,1.8&#10;&#9;&#9;C1040.2,661.9,1042.6,661.9,1045,661.9z" transform="matrix(0.9999999999999999, 0, 0, 0.9999999999999999, -2.842170943040401e-14, 0)"/><path fill="#7FEFE9" d="M999.5,464.7c0.1-2-1.5-3.7-3.5-3.8c-1.9-0.1-3.7,1.6-3.8,3.5c-0.1,1.9,1.5,3.7,3.5,3.7&#10;&#9;&#9;C997.7,468.3,999.4,466.7,999.5,464.7z" transform="matrix(0.9999999999999999, 0, 0, 0.9999999999999999, -2.842170943040401e-14, 0)"/><path fill="#151D38" d="M1159.7,174.2c6.9,0.2,12.4,5.9,12.2,12.8c-0.2,7.1-6,12.6-13.2,12.4c-6.8-0.2-12.4-6-12.2-12.9&#10;&#9;&#9;C1146.7,179.4,1152.5,173.7,1159.7,174.2z M1165.8,186.5c-0.1-3.7-3.2-6.5-6.9-6.3c-3.5,0.2-6.3,3.1-6.3,6.6c0,3.5,3.3,6.8,6.8,6.7&#10;&#9;&#9;C1162.9,193.3,1165.9,190.1,1165.8,186.5z" transform="matrix(0.9999999999999999, 0, 0, 0.9999999999999999, -2.842170943040401e-14, 0)"/><path fill="#151D38" d="M579.7,844.1c-56.4,0-103.2-45.4-103.2-103.1c0-58.5,47.6-103.5,103.5-103.3c58,0.2,103,47.8,103,103.4&#10;&#9;&#9;C682.9,796,638.3,844,579.7,844.1z" transform="matrix(0.9999999999999999, 0, 0, 0.9999999999999999, -2.842170943040401e-14, 0)"/><path fill="#D3B18F" d="M482.5,740.9c0.2,55.7,46,97.1,97.1,97.1c52.1,0.1,97.4-42.4,97.4-97.3c0-53.9-44.2-97-97.1-97.1&#10;&#9;&#9;C527.4,643.5,482.6,686.1,482.5,740.9z" transform="matrix(0.9999999999999999, 0, 0, 0.9999999999999999, -2.842170943040401e-14, 0)"/><path fill="#151D38" d="M1158.4,388.8c16.5,0,32.9,0,49.4,0c1.4,0,2.9,0,4.3,0.3c1.7,0.3,2.5,2.1,2,3.7c-0.2,0.6-0.5,1.2-0.8,1.8&#10;&#9;&#9;c-8.4,15.5-20.5,27-37.6,32.1c-23.2,6.9-43.5,1.2-60.7-15.6c-4.6-4.5-8.2-9.8-11.2-15.5c-0.4-0.8-0.9-1.7-1.2-2.6&#10;&#9;&#9;c-0.7-1.9,0.3-3.7,2.2-4c1.4-0.2,2.9-0.2,4.3-0.2C1125.5,388.8,1141.9,388.8,1158.4,388.8z" transform="matrix(0.9999999999999999, 0, 0, 0.9999999999999999, -2.842170943040401e-14, 0)"/><path fill="#D8B3AD" d="M1158.3,394.9c-13.7,0-27.5,0-41.2,0c-1.3,0-2.6,0-3.8,0c-2.4,0.1-2.7,0.5-1.5,2.4c2.7,4.2,5.8,8,9.4,11.4&#10;&#9;&#9;c12.8,11.7,27.9,16.6,45,13.9c16.3-2.5,28.8-11.5,38.1-25.1c0.3-0.4,0.5-0.8,0.7-1.2c0.3-0.6-0.1-1.3-0.7-1.4&#10;&#9;&#9;c-1.3-0.1-2.6-0.1-3.8-0.1C1186.5,394.9,1172.4,394.9,1158.3,394.9z" transform="matrix(0.9999999999999999, 0, 0, 0.9999999999999999, -2.842170943040401e-14, 0)"/><path fill="#151D38" d="M1231.3,386.5c-5.8,0-10.4-4.5-10.4-10.3c0-6.2,4.6-10.3,10.2-10.5c5.7-0.2,10.3,4.6,10.4,10.3&#10;&#9;&#9;C1241.5,381.9,1237.1,386.4,1231.3,386.5z" transform="matrix(0.9999999999999999, 0, 0, 0.9999999999999999, -2.842170943040401e-14, 0)"/><path fill="#151D38" d="M1072.3,376.1c-0.1-5.8,4.4-10.5,10.1-10.6c5.3-0.1,10.4,4.2,10.5,10.2c0.1,5.8-4.3,10.4-10.1,10.6&#10;&#9;&#9;C1077.1,386.5,1072.4,381.8,1072.3,376.1z" transform="matrix(0.9999999999999999, 0, 0, 0.9999999999999999, -2.842170943040401e-14, 0)"/><path fill="#151D38" d="M1158.5,442.2c-7.1,0.1-13.6-0.9-19.9-2.7c-0.9-0.3-1.8-0.5-2.7-0.9c-1.5-0.7-2.2-2.1-1.8-3.5&#10;&#9;&#9;c0.5-1.5,2-2.4,3.8-2c0.6,0.1,1.2,0.3,1.8,0.5c12,3.5,23.9,3.6,35.9,0c0.9-0.3,1.8-0.6,2.8-0.7c1.4-0.2,2.9,1,3.2,2.4&#10;&#9;&#9;c0.3,1.2-0.4,2.6-1.6,3.2c-2.9,1.4-6.1,2-9.2,2.6C1166.6,441.8,1162.3,442.4,1158.5,442.2z" transform="matrix(0.9999999999999999, 0, 0, 0.9999999999999999, -2.842170943040401e-14, 0)"/><path fill="#151D38" d="M1157.8,379.7c-0.5-0.2-1.2-0.4-1.7-0.7c-3.4-2.3-6.9-4.6-10.2-7c-2.2-1.6-2-4.2,0.3-5.5&#10;&#9;&#9;c3.5-2,7.1-3.7,10.6-5.5c0.1-0.1,0.3-0.1,0.4-0.2c1.9-0.7,3.4-0.2,4.2,1.2c0.8,1.5,0.3,3-1.4,4.1c-1.8,1.1-3.6,2-5.4,3&#10;&#9;&#9;c-0.7,0.4-0.8,0.9-0.1,1.4c1.8,1.3,3.7,2.5,5.4,4c1.7,1.4,1.4,3.8-0.5,4.8C1158.8,379.5,1158.3,379.5,1157.8,379.7z" transform="matrix(0.9999999999999999, 0, 0, 0.9999999999999999, -2.842170943040401e-14, 0)"/><path fill="#151D38" d="M1058.4,369.7c0.5-9.1,7-16.1,15.6-17.3c1-0.1,1.9-0.2,2.8,0.3c1.1,0.6,1.6,1.5,1.6,2.7&#10;&#9;&#9;c0,1-0.4,1.9-1.4,2.3c-1,0.4-2.1,0.6-3.2,0.9c-5.3,1.4-8.4,5-9.1,10.4c-0.1,0.8-0.1,1.6-0.2,2.4c-0.3,1.6-1.6,2.6-3,2.6&#10;&#9;&#9;c-1.4-0.1-2.6-1.2-2.9-2.8C1058.4,370.6,1058.4,369.9,1058.4,369.7z" transform="matrix(0.9999999999999999, 0, 0, 0.9999999999999999, -2.842170943040401e-14, 0)"/><path fill="#151D38" d="M1245.1,353.7c0.4,1.4,1.8,1.7,2.8,2.5c3.6,2.9,5.9,6.7,6.7,11.3c0.2,1.4,0.2,2.9,0.1,4.3&#10;&#9;&#9;c-0.2,1.5-1.5,2.5-3.1,2.4c-1.3-0.1-2.3-1-2.6-2.4c-0.2-0.9-0.1-1.9-0.3-2.9c-1-5.4-4.1-8.9-9.5-10.2c-0.9-0.2-1.9-0.3-2.8-0.7&#10;&#9;&#9;c-1.2-0.5-1.8-1.9-1.5-3.2c0.3-1.2,1.1-1.9,2.3-2.1c1.6-0.2,3.2,0.1,4.7,0.5c1.1,0.3,2.1,0.8,3.2,0.7&#10;&#9;&#9;C1245.3,353.9,1245.1,353.7,1245.1,353.7z" transform="matrix(0.9999999999999999, 0, 0, 0.9999999999999999, -2.842170943040401e-14, 0)"/><path fill="#151D38" d="M1393.8,491.8c-0.4,10.9-5,19.7-14.4,25.9c-0.9,0.6-1.9,1.1-3,1.5c-1.6,0.6-3,0.1-3.7-1.2&#10;&#9;&#9;c-0.7-1.3-0.4-2.8,0.9-3.8c0.9-0.7,1.9-1.2,2.8-1.8c9.5-6.3,13.5-17.7,10-28.5c-0.4-1.2-0.9-2.4-1.2-3.6c-0.4-1.6,0.4-3.1,1.7-3.5&#10;&#9;&#9;c1.4-0.4,2.9,0.1,3.7,1.5C1392.8,482.4,1393.6,486.9,1393.8,491.8z" transform="matrix(0.9999999999999999, 0, 0, 0.9999999999999999, -2.842170943040401e-14, 0)"/>
<path d="M 239.66165161132812 467.71234130859375 L 43.22196578979492 530.934326171875" style="fill: rgb(180, 197, 204); fill-opacity: 1; stroke: rgb(0, 0, 0); stroke-opacity: 1; stroke-width: 0; paint-order: fill;"/><path d="M 926.0715942382812 1133.8009033203125" style="fill: rgb(90, 90, 90); fill-opacity: 1; stroke: rgb(0, 0, 0); stroke-opacity: 1; stroke-width: 0; paint-order: fill;"/><path d="M 996.0673217773438 420.29583740234375" style="fill: rgb(245, 245, 245); fill-opacity: 1; stroke: rgb(0, 0, 0); stroke-opacity: 1; stroke-width: 0; paint-order: fill;"/><path d="M 1366.367431640625 609.9617309570312" style="fill: rgb(186, 185, 171); fill-opacity: 1; stroke: rgb(0, 0, 0); stroke-opacity: 1; stroke-width: 0; paint-order: fill;"/></svg>